<mxfile host="app.diagrams.net" agent="Mozilla/5.0 (Windows NT 10.0; Win64; x64) AppleWebKit/537.36 (KHTML, like Gecko) Chrome/131.0.0.0 Safari/537.36" version="24.8.8" pages="9">
  <diagram id="C5RBs43oDa-KdzZeNtuy" name="Menu Utama">
    <mxGraphModel dx="2564" dy="1027" grid="0" gridSize="10" guides="1" tooltips="1" connect="1" arrows="1" fold="1" page="0" pageScale="1" pageWidth="827" pageHeight="1169" math="0" shadow="0">
      <root>
        <mxCell id="WIyWlLk6GJQsqaUBKTNV-0" />
        <mxCell id="WIyWlLk6GJQsqaUBKTNV-1" parent="WIyWlLk6GJQsqaUBKTNV-0" />
        <mxCell id="orcghPT78gjcKYCTaRUC-0" value="Start" style="strokeWidth=2;html=1;shape=mxgraph.flowchart.start_1;whiteSpace=wrap;" parent="WIyWlLk6GJQsqaUBKTNV-1" vertex="1">
          <mxGeometry x="390" y="60" width="100" height="60" as="geometry" />
        </mxCell>
        <mxCell id="NcpNrNXrdNYCAxmf7Ava-1" style="edgeStyle=orthogonalEdgeStyle;rounded=0;orthogonalLoop=1;jettySize=auto;html=1;entryX=0.5;entryY=0;entryDx=0;entryDy=0;" parent="WIyWlLk6GJQsqaUBKTNV-1" source="orcghPT78gjcKYCTaRUC-1" target="NcpNrNXrdNYCAxmf7Ava-0" edge="1">
          <mxGeometry relative="1" as="geometry" />
        </mxCell>
        <mxCell id="orcghPT78gjcKYCTaRUC-1" value="Menu Utama" style="whiteSpace=wrap;html=1;strokeWidth=2;" parent="WIyWlLk6GJQsqaUBKTNV-1" vertex="1">
          <mxGeometry x="392" y="240" width="96" height="40" as="geometry" />
        </mxCell>
        <mxCell id="NcpNrNXrdNYCAxmf7Ava-5" value="" style="edgeStyle=orthogonalEdgeStyle;rounded=0;orthogonalLoop=1;jettySize=auto;html=1;" parent="WIyWlLk6GJQsqaUBKTNV-1" source="NcpNrNXrdNYCAxmf7Ava-0" target="NcpNrNXrdNYCAxmf7Ava-4" edge="1">
          <mxGeometry relative="1" as="geometry" />
        </mxCell>
        <mxCell id="NcpNrNXrdNYCAxmf7Ava-0" value="Pilih opsi (1/2/3):&lt;div&gt;1. Registrasi&lt;/div&gt;&lt;div&gt;2. Login&lt;/div&gt;&lt;div&gt;3. Keluar&lt;/div&gt;" style="shape=parallelogram;perimeter=parallelogramPerimeter;whiteSpace=wrap;html=1;fixedSize=1;rounded=0;" parent="WIyWlLk6GJQsqaUBKTNV-1" vertex="1">
          <mxGeometry x="367" y="320" width="146" height="80" as="geometry" />
        </mxCell>
        <mxCell id="KmREvO83tW_txtFpxvMM-77" style="edgeStyle=orthogonalEdgeStyle;rounded=0;orthogonalLoop=1;jettySize=auto;html=1;exitX=1;exitY=0.5;exitDx=0;exitDy=0;entryX=0.5;entryY=0;entryDx=0;entryDy=0;" parent="WIyWlLk6GJQsqaUBKTNV-1" source="NcpNrNXrdNYCAxmf7Ava-4" target="KmREvO83tW_txtFpxvMM-74" edge="1">
          <mxGeometry relative="1" as="geometry" />
        </mxCell>
        <mxCell id="OgkC6jbGdplTjSl49ZMj-0" value="yes" style="edgeLabel;html=1;align=center;verticalAlign=middle;resizable=0;points=[];" parent="KmREvO83tW_txtFpxvMM-77" vertex="1" connectable="0">
          <mxGeometry x="-0.4845" y="4" relative="1" as="geometry">
            <mxPoint x="1" as="offset" />
          </mxGeometry>
        </mxCell>
        <mxCell id="NcpNrNXrdNYCAxmf7Ava-4" value="Opsi == &#39;1&#39;" style="rhombus;whiteSpace=wrap;html=1;rounded=0;" parent="WIyWlLk6GJQsqaUBKTNV-1" vertex="1">
          <mxGeometry x="392" y="430" width="96" height="90" as="geometry" />
        </mxCell>
        <mxCell id="NcpNrNXrdNYCAxmf7Ava-13" value="" style="edgeStyle=orthogonalEdgeStyle;rounded=0;orthogonalLoop=1;jettySize=auto;html=1;" parent="WIyWlLk6GJQsqaUBKTNV-1" source="NcpNrNXrdNYCAxmf7Ava-8" target="NcpNrNXrdNYCAxmf7Ava-12" edge="1">
          <mxGeometry relative="1" as="geometry" />
        </mxCell>
        <mxCell id="p4cpFXKcgq63yiQLimso-28" value="no" style="edgeLabel;html=1;align=center;verticalAlign=middle;resizable=0;points=[];" parent="NcpNrNXrdNYCAxmf7Ava-13" vertex="1" connectable="0">
          <mxGeometry x="-0.4775" y="1" relative="1" as="geometry">
            <mxPoint as="offset" />
          </mxGeometry>
        </mxCell>
        <mxCell id="wTQ9C3mTAZaAdTQKI_QT-1" value="" style="edgeStyle=orthogonalEdgeStyle;rounded=0;orthogonalLoop=1;jettySize=auto;html=1;" parent="WIyWlLk6GJQsqaUBKTNV-1" edge="1">
          <mxGeometry relative="1" as="geometry">
            <mxPoint x="-191" y="674.5" as="sourcePoint" />
            <mxPoint x="-116.99999999999977" y="759.5" as="targetPoint" />
          </mxGeometry>
        </mxCell>
        <mxCell id="p4cpFXKcgq63yiQLimso-29" value="yes" style="edgeLabel;html=1;align=center;verticalAlign=middle;resizable=0;points=[];" parent="wTQ9C3mTAZaAdTQKI_QT-1" vertex="1" connectable="0">
          <mxGeometry x="-0.5939" y="-1" relative="1" as="geometry">
            <mxPoint as="offset" />
          </mxGeometry>
        </mxCell>
        <mxCell id="wTQ9C3mTAZaAdTQKI_QT-3" value="" style="edgeStyle=orthogonalEdgeStyle;rounded=0;orthogonalLoop=1;jettySize=auto;html=1;" parent="WIyWlLk6GJQsqaUBKTNV-1" edge="1">
          <mxGeometry relative="1" as="geometry">
            <mxPoint x="-285" y="674.5000000000001" as="sourcePoint" />
            <mxPoint x="-359.9999999999998" y="759.5" as="targetPoint" />
          </mxGeometry>
        </mxCell>
        <mxCell id="p4cpFXKcgq63yiQLimso-30" value="no" style="edgeLabel;html=1;align=center;verticalAlign=middle;resizable=0;points=[];" parent="wTQ9C3mTAZaAdTQKI_QT-3" vertex="1" connectable="0">
          <mxGeometry x="-0.5234" relative="1" as="geometry">
            <mxPoint as="offset" />
          </mxGeometry>
        </mxCell>
        <mxCell id="NcpNrNXrdNYCAxmf7Ava-12" value="Opsi == &#39;3&#39;" style="rhombus;whiteSpace=wrap;html=1;rounded=0;" parent="WIyWlLk6GJQsqaUBKTNV-1" vertex="1">
          <mxGeometry x="-287" y="627.5" width="96" height="90" as="geometry" />
        </mxCell>
        <mxCell id="wTQ9C3mTAZaAdTQKI_QT-0" value="Program Berhenti" style="whiteSpace=wrap;html=1;rounded=0;" parent="WIyWlLk6GJQsqaUBKTNV-1" vertex="1">
          <mxGeometry x="-172" y="757.5" width="110" height="40" as="geometry" />
        </mxCell>
        <mxCell id="wTQ9C3mTAZaAdTQKI_QT-9" style="edgeStyle=orthogonalEdgeStyle;rounded=0;orthogonalLoop=1;jettySize=auto;html=1;exitX=1;exitY=1;exitDx=0;exitDy=0;" parent="WIyWlLk6GJQsqaUBKTNV-1" source="wTQ9C3mTAZaAdTQKI_QT-2" edge="1">
          <mxGeometry relative="1" as="geometry">
            <mxPoint x="-286.9999999999998" y="791.7222222222222" as="targetPoint" />
          </mxGeometry>
        </mxCell>
        <mxCell id="xd5fY2rjWoQjcWlI0IRZ-4" style="edgeStyle=orthogonalEdgeStyle;rounded=0;orthogonalLoop=1;jettySize=auto;html=1;exitX=0.5;exitY=1;exitDx=0;exitDy=0;" parent="WIyWlLk6GJQsqaUBKTNV-1" source="wTQ9C3mTAZaAdTQKI_QT-2" target="xd5fY2rjWoQjcWlI0IRZ-3" edge="1">
          <mxGeometry relative="1" as="geometry" />
        </mxCell>
        <mxCell id="wTQ9C3mTAZaAdTQKI_QT-2" value="Input invalid" style="shape=parallelogram;perimeter=parallelogramPerimeter;whiteSpace=wrap;html=1;fixedSize=1;rounded=0;" parent="WIyWlLk6GJQsqaUBKTNV-1" vertex="1">
          <mxGeometry x="-417" y="757.5" width="110" height="40" as="geometry" />
        </mxCell>
        <mxCell id="p4cpFXKcgq63yiQLimso-24" value="" style="edgeStyle=orthogonalEdgeStyle;rounded=0;orthogonalLoop=1;jettySize=auto;html=1;" parent="WIyWlLk6GJQsqaUBKTNV-1" target="NcpNrNXrdNYCAxmf7Ava-8" edge="1">
          <mxGeometry relative="1" as="geometry">
            <mxPoint x="392.0000000000002" y="477.0000000000001" as="sourcePoint" />
            <mxPoint x="318" y="532.0000000000002" as="targetPoint" />
          </mxGeometry>
        </mxCell>
        <mxCell id="p4cpFXKcgq63yiQLimso-25" value="no" style="edgeLabel;html=1;align=center;verticalAlign=middle;resizable=0;points=[];" parent="p4cpFXKcgq63yiQLimso-24" vertex="1" connectable="0">
          <mxGeometry x="-0.4516" y="-2" relative="1" as="geometry">
            <mxPoint as="offset" />
          </mxGeometry>
        </mxCell>
        <mxCell id="NcpNrNXrdNYCAxmf7Ava-8" value="Opsi == &#39;2&#39;" style="rhombus;whiteSpace=wrap;html=1;rounded=0;" parent="WIyWlLk6GJQsqaUBKTNV-1" vertex="1">
          <mxGeometry x="111" y="520" width="96" height="90" as="geometry" />
        </mxCell>
        <mxCell id="p4cpFXKcgq63yiQLimso-26" value="" style="edgeStyle=orthogonalEdgeStyle;rounded=0;orthogonalLoop=1;jettySize=auto;html=1;" parent="WIyWlLk6GJQsqaUBKTNV-1" edge="1">
          <mxGeometry relative="1" as="geometry">
            <mxPoint x="204" y="560.0000000000001" as="sourcePoint" />
            <mxPoint x="279.99999999999955" y="637.5" as="targetPoint" />
          </mxGeometry>
        </mxCell>
        <mxCell id="p4cpFXKcgq63yiQLimso-27" value="yes" style="edgeLabel;html=1;align=center;verticalAlign=middle;resizable=0;points=[];" parent="p4cpFXKcgq63yiQLimso-26" vertex="1" connectable="0">
          <mxGeometry x="-0.4393" relative="1" as="geometry">
            <mxPoint as="offset" />
          </mxGeometry>
        </mxCell>
        <mxCell id="MLovk9dn3RSEMy2CfE1n-13" value="" style="endArrow=classic;html=1;rounded=0;entryX=0.212;entryY=0.049;entryDx=0;entryDy=0;entryPerimeter=0;" parent="WIyWlLk6GJQsqaUBKTNV-1" edge="1">
          <mxGeometry width="50" height="50" relative="1" as="geometry">
            <mxPoint x="323.36" y="330" as="sourcePoint" />
            <mxPoint x="382.00000000000034" y="330.125" as="targetPoint" />
          </mxGeometry>
        </mxCell>
        <mxCell id="8XJvvvexlE0S5Ib5Qe6K-1" style="edgeStyle=orthogonalEdgeStyle;rounded=0;orthogonalLoop=1;jettySize=auto;html=1;exitX=0.5;exitY=1;exitDx=0;exitDy=0;entryX=0.5;entryY=0;entryDx=0;entryDy=0;" parent="WIyWlLk6GJQsqaUBKTNV-1" source="KmREvO83tW_txtFpxvMM-2" target="8XJvvvexlE0S5Ib5Qe6K-0" edge="1">
          <mxGeometry relative="1" as="geometry" />
        </mxCell>
        <mxCell id="KmREvO83tW_txtFpxvMM-2" value="Fitur Login" style="whiteSpace=wrap;html=1;rounded=0;" parent="WIyWlLk6GJQsqaUBKTNV-1" vertex="1">
          <mxGeometry x="240" y="640" width="80" height="40" as="geometry" />
        </mxCell>
        <mxCell id="KmREvO83tW_txtFpxvMM-74" value="Fitur Registrasi" style="whiteSpace=wrap;html=1;rounded=0;" parent="WIyWlLk6GJQsqaUBKTNV-1" vertex="1">
          <mxGeometry x="750" y="560" width="100" height="40" as="geometry" />
        </mxCell>
        <mxCell id="8XJvvvexlE0S5Ib5Qe6K-11" style="edgeStyle=orthogonalEdgeStyle;rounded=0;orthogonalLoop=1;jettySize=auto;html=1;exitX=0.5;exitY=1;exitDx=0;exitDy=0;" parent="WIyWlLk6GJQsqaUBKTNV-1" source="8XJvvvexlE0S5Ib5Qe6K-0" target="8XJvvvexlE0S5Ib5Qe6K-10" edge="1">
          <mxGeometry relative="1" as="geometry" />
        </mxCell>
        <UserObject label="2" link="data:page/id,AMZ4y96Dd5lvssltNROi" id="8XJvvvexlE0S5Ib5Qe6K-0">
          <mxCell style="verticalLabelPosition=bottom;verticalAlign=top;html=1;shape=offPageConnector;rounded=0;size=0.5;" parent="WIyWlLk6GJQsqaUBKTNV-1" vertex="1">
            <mxGeometry x="250" y="717.5" width="60" height="60" as="geometry" />
          </mxCell>
        </UserObject>
        <mxCell id="8XJvvvexlE0S5Ib5Qe6K-3" value="" style="edgeStyle=orthogonalEdgeStyle;rounded=0;orthogonalLoop=1;jettySize=auto;html=1;exitX=0.5;exitY=1;exitDx=0;exitDy=0;entryX=0.5;entryY=0;entryDx=0;entryDy=0;" parent="WIyWlLk6GJQsqaUBKTNV-1" source="KmREvO83tW_txtFpxvMM-74" target="8XJvvvexlE0S5Ib5Qe6K-2" edge="1">
          <mxGeometry relative="1" as="geometry">
            <mxPoint x="800" y="600" as="sourcePoint" />
            <mxPoint x="800.0000000000005" y="682.5" as="targetPoint" />
          </mxGeometry>
        </mxCell>
        <UserObject label="1" link="data:page/id,KT9KhmuWsmm2xTx8V9r3" id="8XJvvvexlE0S5Ib5Qe6K-2">
          <mxCell style="verticalLabelPosition=bottom;verticalAlign=top;html=1;shape=offPageConnector;rounded=0;size=0.5;" parent="WIyWlLk6GJQsqaUBKTNV-1" vertex="1">
            <mxGeometry x="770" y="642.5" width="60" height="60" as="geometry" />
          </mxCell>
        </UserObject>
        <mxCell id="8XJvvvexlE0S5Ib5Qe6K-13" style="edgeStyle=orthogonalEdgeStyle;rounded=0;orthogonalLoop=1;jettySize=auto;html=1;exitX=0.5;exitY=1;exitDx=0;exitDy=0;entryX=0.5;entryY=0;entryDx=0;entryDy=0;" parent="WIyWlLk6GJQsqaUBKTNV-1" source="8XJvvvexlE0S5Ib5Qe6K-10" target="8XJvvvexlE0S5Ib5Qe6K-12" edge="1">
          <mxGeometry relative="1" as="geometry" />
        </mxCell>
        <mxCell id="8XJvvvexlE0S5Ib5Qe6K-10" value="Program Utama" style="whiteSpace=wrap;html=1;rounded=0;" parent="WIyWlLk6GJQsqaUBKTNV-1" vertex="1">
          <mxGeometry x="230" y="840" width="100" height="40" as="geometry" />
        </mxCell>
        <UserObject label="4" link="data:page/id,0SJwvxfQRwlbceAc_MAZ" id="8XJvvvexlE0S5Ib5Qe6K-12">
          <mxCell style="verticalLabelPosition=bottom;verticalAlign=top;html=1;shape=offPageConnector;rounded=0;size=0.5;" parent="WIyWlLk6GJQsqaUBKTNV-1" vertex="1">
            <mxGeometry x="250" y="920" width="60" height="60" as="geometry" />
          </mxCell>
        </UserObject>
        <mxCell id="i_CpsL6Zb3bbBmTeRqfG-4" value="End" style="strokeWidth=2;html=1;shape=mxgraph.flowchart.start_1;whiteSpace=wrap;" parent="WIyWlLk6GJQsqaUBKTNV-1" vertex="1">
          <mxGeometry x="-167" y="1040" width="100" height="60" as="geometry" />
        </mxCell>
        <mxCell id="i_CpsL6Zb3bbBmTeRqfG-5" style="edgeStyle=orthogonalEdgeStyle;rounded=0;orthogonalLoop=1;jettySize=auto;html=1;exitX=0.5;exitY=1;exitDx=0;exitDy=0;entryX=0.5;entryY=0;entryDx=0;entryDy=0;entryPerimeter=0;" parent="WIyWlLk6GJQsqaUBKTNV-1" source="wTQ9C3mTAZaAdTQKI_QT-0" target="i_CpsL6Zb3bbBmTeRqfG-4" edge="1">
          <mxGeometry relative="1" as="geometry" />
        </mxCell>
        <mxCell id="xd5fY2rjWoQjcWlI0IRZ-2" style="edgeStyle=orthogonalEdgeStyle;rounded=0;orthogonalLoop=1;jettySize=auto;html=1;exitX=0.5;exitY=1;exitDx=0;exitDy=0;" parent="WIyWlLk6GJQsqaUBKTNV-1" target="orcghPT78gjcKYCTaRUC-1" edge="1">
          <mxGeometry relative="1" as="geometry">
            <mxPoint x="440" y="200" as="sourcePoint" />
          </mxGeometry>
        </mxCell>
        <mxCell id="xd5fY2rjWoQjcWlI0IRZ-3" value="3" style="verticalLabelPosition=bottom;verticalAlign=top;html=1;shape=mxgraph.flowchart.on-page_reference;" parent="WIyWlLk6GJQsqaUBKTNV-1" vertex="1">
          <mxGeometry x="-392" y="840" width="60" height="60" as="geometry" />
        </mxCell>
        <mxCell id="xd5fY2rjWoQjcWlI0IRZ-6" value="" style="edgeStyle=orthogonalEdgeStyle;rounded=0;orthogonalLoop=1;jettySize=auto;html=1;exitX=0.5;exitY=1;exitDx=0;exitDy=0;exitPerimeter=0;" parent="WIyWlLk6GJQsqaUBKTNV-1" source="orcghPT78gjcKYCTaRUC-0" target="xd5fY2rjWoQjcWlI0IRZ-5" edge="1">
          <mxGeometry relative="1" as="geometry">
            <mxPoint x="440" y="120" as="sourcePoint" />
            <mxPoint x="440" y="160" as="targetPoint" />
          </mxGeometry>
        </mxCell>
        <mxCell id="xd5fY2rjWoQjcWlI0IRZ-5" value="3" style="verticalLabelPosition=bottom;verticalAlign=top;html=1;shape=mxgraph.flowchart.on-page_reference;" parent="WIyWlLk6GJQsqaUBKTNV-1" vertex="1">
          <mxGeometry x="420" y="160" width="40" height="40" as="geometry" />
        </mxCell>
        <mxCell id="xd5fY2rjWoQjcWlI0IRZ-8" style="edgeStyle=orthogonalEdgeStyle;rounded=0;orthogonalLoop=1;jettySize=auto;html=1;exitX=0;exitY=0.5;exitDx=0;exitDy=0;entryX=1;entryY=0.5;entryDx=0;entryDy=0;" parent="WIyWlLk6GJQsqaUBKTNV-1" source="xd5fY2rjWoQjcWlI0IRZ-7" target="orcghPT78gjcKYCTaRUC-1" edge="1">
          <mxGeometry relative="1" as="geometry" />
        </mxCell>
        <mxCell id="xd5fY2rjWoQjcWlI0IRZ-7" value="3" style="verticalLabelPosition=bottom;verticalAlign=top;html=1;shape=offPageConnector;rounded=0;size=0.5;" parent="WIyWlLk6GJQsqaUBKTNV-1" vertex="1">
          <mxGeometry x="600" y="240" width="40" height="40" as="geometry" />
        </mxCell>
      </root>
    </mxGraphModel>
  </diagram>
  <diagram id="0SJwvxfQRwlbceAc_MAZ" name="Program Utama">
    <mxGraphModel dx="3169" dy="627" grid="0" gridSize="10" guides="1" tooltips="1" connect="1" arrows="1" fold="1" page="0" pageScale="1" pageWidth="850" pageHeight="1100" math="0" shadow="0">
      <root>
        <mxCell id="0" />
        <mxCell id="1" parent="0" />
        <mxCell id="l8WocCBfgrIKf2EqdKtJ-1" style="edgeStyle=orthogonalEdgeStyle;rounded=0;orthogonalLoop=1;jettySize=auto;html=1;exitX=0.5;exitY=1;exitDx=0;exitDy=0;entryX=0.5;entryY=0;entryDx=0;entryDy=0;" parent="1" source="l8WocCBfgrIKf2EqdKtJ-2" target="l8WocCBfgrIKf2EqdKtJ-8" edge="1">
          <mxGeometry relative="1" as="geometry" />
        </mxCell>
        <mxCell id="l8WocCBfgrIKf2EqdKtJ-2" value="Pilih opsi (1/2/3/4/5/6):&lt;div&gt;1. Tambah Karakter&lt;/div&gt;&lt;div&gt;2. Lihat Karakter&lt;/div&gt;&lt;div&gt;3. Update Karakter&lt;/div&gt;&lt;div&gt;4. Hapus Karakter&lt;/div&gt;&lt;div&gt;5. Cek Interaksi&lt;/div&gt;&lt;div&gt;6. Keluar&amp;nbsp;&lt;/div&gt;" style="shape=parallelogram;html=1;strokeWidth=2;perimeter=parallelogramPerimeter;whiteSpace=wrap;rounded=1;arcSize=12;size=0.23;" parent="1" vertex="1">
          <mxGeometry x="810" y="840" width="220" height="125" as="geometry" />
        </mxCell>
        <mxCell id="l8WocCBfgrIKf2EqdKtJ-3" value="" style="endArrow=classic;html=1;rounded=0;entryX=0.212;entryY=0.049;entryDx=0;entryDy=0;entryPerimeter=0;" parent="1" edge="1">
          <mxGeometry width="50" height="50" relative="1" as="geometry">
            <mxPoint x="796.3599999999999" y="850" as="sourcePoint" />
            <mxPoint x="855.0000000000002" y="850.125" as="targetPoint" />
          </mxGeometry>
        </mxCell>
        <mxCell id="l8WocCBfgrIKf2EqdKtJ-4" value="" style="edgeStyle=orthogonalEdgeStyle;rounded=0;orthogonalLoop=1;jettySize=auto;html=1;" parent="1" source="l8WocCBfgrIKf2EqdKtJ-8" target="l8WocCBfgrIKf2EqdKtJ-9" edge="1">
          <mxGeometry relative="1" as="geometry" />
        </mxCell>
        <mxCell id="l8WocCBfgrIKf2EqdKtJ-5" value="yes" style="edgeLabel;html=1;align=center;verticalAlign=middle;resizable=0;points=[];" parent="l8WocCBfgrIKf2EqdKtJ-4" vertex="1" connectable="0">
          <mxGeometry x="-0.4882" y="-3" relative="1" as="geometry">
            <mxPoint as="offset" />
          </mxGeometry>
        </mxCell>
        <mxCell id="l8WocCBfgrIKf2EqdKtJ-6" value="" style="edgeStyle=orthogonalEdgeStyle;rounded=0;orthogonalLoop=1;jettySize=auto;html=1;" parent="1" source="l8WocCBfgrIKf2EqdKtJ-8" target="l8WocCBfgrIKf2EqdKtJ-14" edge="1">
          <mxGeometry relative="1" as="geometry" />
        </mxCell>
        <mxCell id="l8WocCBfgrIKf2EqdKtJ-7" value="no" style="edgeLabel;html=1;align=center;verticalAlign=middle;resizable=0;points=[];" parent="l8WocCBfgrIKf2EqdKtJ-6" vertex="1" connectable="0">
          <mxGeometry x="-0.5193" y="4" relative="1" as="geometry">
            <mxPoint as="offset" />
          </mxGeometry>
        </mxCell>
        <mxCell id="l8WocCBfgrIKf2EqdKtJ-8" value="Opsi == &#39;1&#39;" style="rhombus;whiteSpace=wrap;html=1;strokeWidth=2;rounded=1;arcSize=12;" parent="1" vertex="1">
          <mxGeometry x="880" y="1000" width="80" height="80" as="geometry" />
        </mxCell>
        <mxCell id="p6JWMwbt8tRHhZocvczN-2" style="edgeStyle=orthogonalEdgeStyle;rounded=0;orthogonalLoop=1;jettySize=auto;html=1;exitX=0.5;exitY=1;exitDx=0;exitDy=0;entryX=0.5;entryY=0;entryDx=0;entryDy=0;" parent="1" source="l8WocCBfgrIKf2EqdKtJ-9" target="p6JWMwbt8tRHhZocvczN-1" edge="1">
          <mxGeometry relative="1" as="geometry" />
        </mxCell>
        <mxCell id="l8WocCBfgrIKf2EqdKtJ-9" value="Tambah Karakter" style="whiteSpace=wrap;html=1;strokeWidth=2;rounded=1;arcSize=12;" parent="1" vertex="1">
          <mxGeometry x="988" y="1120" width="100" height="40" as="geometry" />
        </mxCell>
        <mxCell id="l8WocCBfgrIKf2EqdKtJ-10" value="" style="edgeStyle=orthogonalEdgeStyle;rounded=0;orthogonalLoop=1;jettySize=auto;html=1;" parent="1" source="l8WocCBfgrIKf2EqdKtJ-14" target="l8WocCBfgrIKf2EqdKtJ-15" edge="1">
          <mxGeometry relative="1" as="geometry" />
        </mxCell>
        <mxCell id="l8WocCBfgrIKf2EqdKtJ-11" value="yes" style="edgeLabel;html=1;align=center;verticalAlign=middle;resizable=0;points=[];" parent="l8WocCBfgrIKf2EqdKtJ-10" vertex="1" connectable="0">
          <mxGeometry x="-0.4939" y="3" relative="1" as="geometry">
            <mxPoint as="offset" />
          </mxGeometry>
        </mxCell>
        <mxCell id="l8WocCBfgrIKf2EqdKtJ-12" value="" style="edgeStyle=orthogonalEdgeStyle;rounded=0;orthogonalLoop=1;jettySize=auto;html=1;" parent="1" source="l8WocCBfgrIKf2EqdKtJ-14" target="l8WocCBfgrIKf2EqdKtJ-20" edge="1">
          <mxGeometry relative="1" as="geometry" />
        </mxCell>
        <mxCell id="l8WocCBfgrIKf2EqdKtJ-13" value="no" style="edgeLabel;html=1;align=center;verticalAlign=middle;resizable=0;points=[];" parent="l8WocCBfgrIKf2EqdKtJ-12" vertex="1" connectable="0">
          <mxGeometry x="-0.5061" y="3" relative="1" as="geometry">
            <mxPoint as="offset" />
          </mxGeometry>
        </mxCell>
        <mxCell id="l8WocCBfgrIKf2EqdKtJ-14" value="Opsi == &#39;2&#39;" style="rhombus;whiteSpace=wrap;html=1;strokeWidth=2;rounded=1;arcSize=12;" parent="1" vertex="1">
          <mxGeometry x="760" y="1120" width="80" height="80" as="geometry" />
        </mxCell>
        <mxCell id="8A8M3nFB6FCpKB6m2liu-2" style="edgeStyle=orthogonalEdgeStyle;rounded=0;orthogonalLoop=1;jettySize=auto;html=1;exitX=0.5;exitY=1;exitDx=0;exitDy=0;entryX=0.5;entryY=0;entryDx=0;entryDy=0;" parent="1" source="l8WocCBfgrIKf2EqdKtJ-15" target="8A8M3nFB6FCpKB6m2liu-1" edge="1">
          <mxGeometry relative="1" as="geometry" />
        </mxCell>
        <mxCell id="l8WocCBfgrIKf2EqdKtJ-15" value="Lihat Karakter" style="whiteSpace=wrap;html=1;strokeWidth=2;rounded=1;arcSize=12;" parent="1" vertex="1">
          <mxGeometry x="870" y="1240" width="100" height="40" as="geometry" />
        </mxCell>
        <mxCell id="l8WocCBfgrIKf2EqdKtJ-16" value="" style="edgeStyle=orthogonalEdgeStyle;rounded=0;orthogonalLoop=1;jettySize=auto;html=1;" parent="1" source="l8WocCBfgrIKf2EqdKtJ-20" target="l8WocCBfgrIKf2EqdKtJ-21" edge="1">
          <mxGeometry relative="1" as="geometry" />
        </mxCell>
        <mxCell id="l8WocCBfgrIKf2EqdKtJ-17" value="yes" style="edgeLabel;html=1;align=center;verticalAlign=middle;resizable=0;points=[];" parent="l8WocCBfgrIKf2EqdKtJ-16" vertex="1" connectable="0">
          <mxGeometry x="-0.5465" y="-3" relative="1" as="geometry">
            <mxPoint as="offset" />
          </mxGeometry>
        </mxCell>
        <mxCell id="l8WocCBfgrIKf2EqdKtJ-18" value="" style="edgeStyle=orthogonalEdgeStyle;rounded=0;orthogonalLoop=1;jettySize=auto;html=1;" parent="1" source="l8WocCBfgrIKf2EqdKtJ-20" target="l8WocCBfgrIKf2EqdKtJ-26" edge="1">
          <mxGeometry relative="1" as="geometry" />
        </mxCell>
        <mxCell id="l8WocCBfgrIKf2EqdKtJ-19" value="no" style="edgeLabel;html=1;align=center;verticalAlign=middle;resizable=0;points=[];" parent="l8WocCBfgrIKf2EqdKtJ-18" vertex="1" connectable="0">
          <mxGeometry x="-0.5325" y="1" relative="1" as="geometry">
            <mxPoint as="offset" />
          </mxGeometry>
        </mxCell>
        <mxCell id="l8WocCBfgrIKf2EqdKtJ-20" value="Opsi == &#39;3&#39;" style="rhombus;whiteSpace=wrap;html=1;strokeWidth=2;rounded=1;arcSize=12;" parent="1" vertex="1">
          <mxGeometry x="640" y="1240" width="80" height="80" as="geometry" />
        </mxCell>
        <mxCell id="8A8M3nFB6FCpKB6m2liu-4" style="edgeStyle=orthogonalEdgeStyle;rounded=0;orthogonalLoop=1;jettySize=auto;html=1;exitX=0.5;exitY=1;exitDx=0;exitDy=0;" parent="1" source="l8WocCBfgrIKf2EqdKtJ-21" target="8A8M3nFB6FCpKB6m2liu-3" edge="1">
          <mxGeometry relative="1" as="geometry" />
        </mxCell>
        <mxCell id="l8WocCBfgrIKf2EqdKtJ-21" value="Update Karakter" style="whiteSpace=wrap;html=1;strokeWidth=2;rounded=1;arcSize=12;" parent="1" vertex="1">
          <mxGeometry x="745" y="1360" width="110" height="40" as="geometry" />
        </mxCell>
        <mxCell id="l8WocCBfgrIKf2EqdKtJ-22" value="" style="edgeStyle=orthogonalEdgeStyle;rounded=0;orthogonalLoop=1;jettySize=auto;html=1;" parent="1" source="l8WocCBfgrIKf2EqdKtJ-26" target="l8WocCBfgrIKf2EqdKtJ-27" edge="1">
          <mxGeometry relative="1" as="geometry" />
        </mxCell>
        <mxCell id="l8WocCBfgrIKf2EqdKtJ-23" value="yes" style="edgeLabel;html=1;align=center;verticalAlign=middle;resizable=0;points=[];" parent="l8WocCBfgrIKf2EqdKtJ-22" vertex="1" connectable="0">
          <mxGeometry x="-0.5333" y="-3" relative="1" as="geometry">
            <mxPoint as="offset" />
          </mxGeometry>
        </mxCell>
        <mxCell id="l8WocCBfgrIKf2EqdKtJ-24" value="" style="edgeStyle=orthogonalEdgeStyle;rounded=0;orthogonalLoop=1;jettySize=auto;html=1;" parent="1" source="l8WocCBfgrIKf2EqdKtJ-26" target="l8WocCBfgrIKf2EqdKtJ-32" edge="1">
          <mxGeometry relative="1" as="geometry" />
        </mxCell>
        <mxCell id="l8WocCBfgrIKf2EqdKtJ-25" value="no" style="edgeLabel;html=1;align=center;verticalAlign=middle;resizable=0;points=[];" parent="l8WocCBfgrIKf2EqdKtJ-24" vertex="1" connectable="0">
          <mxGeometry x="-0.5193" relative="1" as="geometry">
            <mxPoint as="offset" />
          </mxGeometry>
        </mxCell>
        <mxCell id="l8WocCBfgrIKf2EqdKtJ-26" value="Opsi == &#39;4&#39;" style="rhombus;whiteSpace=wrap;html=1;strokeWidth=2;rounded=1;arcSize=12;" parent="1" vertex="1">
          <mxGeometry x="520" y="1360" width="80" height="80" as="geometry" />
        </mxCell>
        <mxCell id="8A8M3nFB6FCpKB6m2liu-6" style="edgeStyle=orthogonalEdgeStyle;rounded=0;orthogonalLoop=1;jettySize=auto;html=1;exitX=0.5;exitY=1;exitDx=0;exitDy=0;" parent="1" source="l8WocCBfgrIKf2EqdKtJ-27" target="8A8M3nFB6FCpKB6m2liu-5" edge="1">
          <mxGeometry relative="1" as="geometry" />
        </mxCell>
        <mxCell id="l8WocCBfgrIKf2EqdKtJ-27" value="Hapus Karakter" style="whiteSpace=wrap;html=1;strokeWidth=2;rounded=1;arcSize=12;" parent="1" vertex="1">
          <mxGeometry x="625" y="1480" width="110" height="40" as="geometry" />
        </mxCell>
        <mxCell id="l8WocCBfgrIKf2EqdKtJ-28" value="" style="edgeStyle=orthogonalEdgeStyle;rounded=0;orthogonalLoop=1;jettySize=auto;html=1;" parent="1" source="l8WocCBfgrIKf2EqdKtJ-32" target="l8WocCBfgrIKf2EqdKtJ-33" edge="1">
          <mxGeometry relative="1" as="geometry" />
        </mxCell>
        <mxCell id="l8WocCBfgrIKf2EqdKtJ-29" value="yes" style="edgeLabel;html=1;align=center;verticalAlign=middle;resizable=0;points=[];" parent="l8WocCBfgrIKf2EqdKtJ-28" vertex="1" connectable="0">
          <mxGeometry x="-0.586" y="-1" relative="1" as="geometry">
            <mxPoint as="offset" />
          </mxGeometry>
        </mxCell>
        <mxCell id="l8WocCBfgrIKf2EqdKtJ-30" value="" style="edgeStyle=orthogonalEdgeStyle;rounded=0;orthogonalLoop=1;jettySize=auto;html=1;" parent="1" source="l8WocCBfgrIKf2EqdKtJ-32" target="l8WocCBfgrIKf2EqdKtJ-35" edge="1">
          <mxGeometry relative="1" as="geometry" />
        </mxCell>
        <mxCell id="l8WocCBfgrIKf2EqdKtJ-31" value="no" style="edgeLabel;html=1;align=center;verticalAlign=middle;resizable=0;points=[];" parent="l8WocCBfgrIKf2EqdKtJ-30" vertex="1" connectable="0">
          <mxGeometry x="-0.4667" y="-4" relative="1" as="geometry">
            <mxPoint as="offset" />
          </mxGeometry>
        </mxCell>
        <mxCell id="l8WocCBfgrIKf2EqdKtJ-32" value="Opsi == &#39;5&#39;" style="rhombus;whiteSpace=wrap;html=1;strokeWidth=2;rounded=1;arcSize=12;" parent="1" vertex="1">
          <mxGeometry x="400" y="1480" width="80" height="80" as="geometry" />
        </mxCell>
        <mxCell id="8A8M3nFB6FCpKB6m2liu-8" style="edgeStyle=orthogonalEdgeStyle;rounded=0;orthogonalLoop=1;jettySize=auto;html=1;exitX=0.5;exitY=1;exitDx=0;exitDy=0;entryX=0.5;entryY=0;entryDx=0;entryDy=0;" parent="1" source="l8WocCBfgrIKf2EqdKtJ-33" target="8A8M3nFB6FCpKB6m2liu-7" edge="1">
          <mxGeometry relative="1" as="geometry" />
        </mxCell>
        <mxCell id="l8WocCBfgrIKf2EqdKtJ-33" value="Cek Interaksi" style="whiteSpace=wrap;html=1;strokeWidth=2;rounded=1;arcSize=12;" parent="1" vertex="1">
          <mxGeometry x="510" y="1600" width="100" height="40" as="geometry" />
        </mxCell>
        <mxCell id="8A8M3nFB6FCpKB6m2liu-10" style="edgeStyle=orthogonalEdgeStyle;rounded=0;orthogonalLoop=1;jettySize=auto;html=1;exitX=0.5;exitY=1;exitDx=0;exitDy=0;" parent="1" source="l8WocCBfgrIKf2EqdKtJ-35" target="8A8M3nFB6FCpKB6m2liu-9" edge="1">
          <mxGeometry relative="1" as="geometry" />
        </mxCell>
        <mxCell id="l8WocCBfgrIKf2EqdKtJ-35" value="Logout" style="whiteSpace=wrap;html=1;strokeWidth=2;rounded=1;arcSize=12;" parent="1" vertex="1">
          <mxGeometry x="268" y="1600" width="100" height="40" as="geometry" />
        </mxCell>
        <mxCell id="l8WocCBfgrIKf2EqdKtJ-36" style="edgeStyle=orthogonalEdgeStyle;rounded=0;orthogonalLoop=1;jettySize=auto;html=1;entryX=0.5;entryY=0;entryDx=0;entryDy=0;" parent="1" source="l8WocCBfgrIKf2EqdKtJ-40" target="l8WocCBfgrIKf2EqdKtJ-42" edge="1">
          <mxGeometry relative="1" as="geometry" />
        </mxCell>
        <mxCell id="l8WocCBfgrIKf2EqdKtJ-37" value="no" style="edgeLabel;html=1;align=center;verticalAlign=middle;resizable=0;points=[];" parent="l8WocCBfgrIKf2EqdKtJ-36" vertex="1" connectable="0">
          <mxGeometry x="-0.337" y="1" relative="1" as="geometry">
            <mxPoint x="-1" as="offset" />
          </mxGeometry>
        </mxCell>
        <mxCell id="l8WocCBfgrIKf2EqdKtJ-38" style="edgeStyle=orthogonalEdgeStyle;rounded=0;orthogonalLoop=1;jettySize=auto;html=1;exitX=1;exitY=0.5;exitDx=0;exitDy=0;entryX=0.5;entryY=0;entryDx=0;entryDy=0;" parent="1" source="l8WocCBfgrIKf2EqdKtJ-40" target="l8WocCBfgrIKf2EqdKtJ-2" edge="1">
          <mxGeometry relative="1" as="geometry" />
        </mxCell>
        <mxCell id="l8WocCBfgrIKf2EqdKtJ-39" value="yes" style="edgeLabel;html=1;align=center;verticalAlign=middle;resizable=0;points=[];" parent="l8WocCBfgrIKf2EqdKtJ-38" vertex="1" connectable="0">
          <mxGeometry x="-0.1944" y="-1" relative="1" as="geometry">
            <mxPoint x="1" as="offset" />
          </mxGeometry>
        </mxCell>
        <mxCell id="l8WocCBfgrIKf2EqdKtJ-40" value="peran == &#39;admin&#39;" style="rhombus;whiteSpace=wrap;html=1;rounded=0;" parent="1" vertex="1">
          <mxGeometry x="240" y="720" width="80" height="80" as="geometry" />
        </mxCell>
        <mxCell id="l8WocCBfgrIKf2EqdKtJ-41" value="" style="edgeStyle=orthogonalEdgeStyle;rounded=0;orthogonalLoop=1;jettySize=auto;html=1;" parent="1" source="l8WocCBfgrIKf2EqdKtJ-42" target="l8WocCBfgrIKf2EqdKtJ-48" edge="1">
          <mxGeometry relative="1" as="geometry" />
        </mxCell>
        <mxCell id="l8WocCBfgrIKf2EqdKtJ-42" value="Pilih opsi (1/2/3/4):&lt;div&gt;1. Tambah Karakter&lt;/div&gt;&lt;div&gt;2. Lihat Karakter&lt;/div&gt;&lt;div&gt;&lt;span style=&quot;background-color: initial;&quot;&gt;3. Cek Interaksi&lt;/span&gt;&lt;br&gt;&lt;/div&gt;&lt;div&gt;4. Keluar&amp;nbsp;&lt;/div&gt;" style="shape=parallelogram;html=1;strokeWidth=2;perimeter=parallelogramPerimeter;whiteSpace=wrap;rounded=1;arcSize=12;size=0.23;" parent="1" vertex="1">
          <mxGeometry x="-22" y="840" width="198" height="100" as="geometry" />
        </mxCell>
        <mxCell id="l8WocCBfgrIKf2EqdKtJ-43" value="" style="endArrow=classic;html=1;rounded=0;entryX=0.212;entryY=0.049;entryDx=0;entryDy=0;entryPerimeter=0;" parent="1" edge="1">
          <mxGeometry width="50" height="50" relative="1" as="geometry">
            <mxPoint x="-42" y="850" as="sourcePoint" />
            <mxPoint x="16.640000000000327" y="850.125" as="targetPoint" />
          </mxGeometry>
        </mxCell>
        <mxCell id="l8WocCBfgrIKf2EqdKtJ-44" style="edgeStyle=orthogonalEdgeStyle;rounded=0;orthogonalLoop=1;jettySize=auto;html=1;exitX=1;exitY=0.5;exitDx=0;exitDy=0;entryX=0.5;entryY=0;entryDx=0;entryDy=0;" parent="1" source="l8WocCBfgrIKf2EqdKtJ-48" target="l8WocCBfgrIKf2EqdKtJ-50" edge="1">
          <mxGeometry relative="1" as="geometry" />
        </mxCell>
        <mxCell id="l8WocCBfgrIKf2EqdKtJ-45" value="yes" style="edgeLabel;html=1;align=center;verticalAlign=middle;resizable=0;points=[];" parent="l8WocCBfgrIKf2EqdKtJ-44" vertex="1" connectable="0">
          <mxGeometry x="-0.5983" y="4" relative="1" as="geometry">
            <mxPoint as="offset" />
          </mxGeometry>
        </mxCell>
        <mxCell id="l8WocCBfgrIKf2EqdKtJ-46" value="" style="edgeStyle=orthogonalEdgeStyle;rounded=0;orthogonalLoop=1;jettySize=auto;html=1;" parent="1" source="l8WocCBfgrIKf2EqdKtJ-48" target="l8WocCBfgrIKf2EqdKtJ-60" edge="1">
          <mxGeometry relative="1" as="geometry" />
        </mxCell>
        <mxCell id="l8WocCBfgrIKf2EqdKtJ-47" value="no" style="edgeLabel;html=1;align=center;verticalAlign=middle;resizable=0;points=[];" parent="l8WocCBfgrIKf2EqdKtJ-46" vertex="1" connectable="0">
          <mxGeometry x="-0.4843" relative="1" as="geometry">
            <mxPoint as="offset" />
          </mxGeometry>
        </mxCell>
        <mxCell id="l8WocCBfgrIKf2EqdKtJ-48" value="Opsi == &#39;1&#39;" style="rhombus;whiteSpace=wrap;html=1;strokeWidth=2;rounded=1;arcSize=12;" parent="1" vertex="1">
          <mxGeometry x="37" y="1000" width="80" height="80" as="geometry" />
        </mxCell>
        <mxCell id="hwdTm1FOQKXtMTgNsfww-8" style="edgeStyle=orthogonalEdgeStyle;rounded=0;orthogonalLoop=1;jettySize=auto;html=1;exitX=0.5;exitY=1;exitDx=0;exitDy=0;entryX=0.5;entryY=0;entryDx=0;entryDy=0;" parent="1" source="l8WocCBfgrIKf2EqdKtJ-50" target="hwdTm1FOQKXtMTgNsfww-1" edge="1">
          <mxGeometry relative="1" as="geometry" />
        </mxCell>
        <mxCell id="l8WocCBfgrIKf2EqdKtJ-50" value="Tambah Karakter" style="whiteSpace=wrap;html=1;strokeWidth=2;rounded=1;arcSize=12;" parent="1" vertex="1">
          <mxGeometry x="148" y="1120" width="100" height="40" as="geometry" />
        </mxCell>
        <mxCell id="hwdTm1FOQKXtMTgNsfww-7" style="edgeStyle=orthogonalEdgeStyle;rounded=0;orthogonalLoop=1;jettySize=auto;html=1;exitX=0.5;exitY=1;exitDx=0;exitDy=0;" parent="1" source="l8WocCBfgrIKf2EqdKtJ-52" target="hwdTm1FOQKXtMTgNsfww-2" edge="1">
          <mxGeometry relative="1" as="geometry" />
        </mxCell>
        <mxCell id="l8WocCBfgrIKf2EqdKtJ-52" value="Lihat Karakter" style="whiteSpace=wrap;html=1;strokeWidth=2;rounded=1;arcSize=12;" parent="1" vertex="1">
          <mxGeometry x="27" y="1240" width="100" height="40" as="geometry" />
        </mxCell>
        <mxCell id="hwdTm1FOQKXtMTgNsfww-6" style="edgeStyle=orthogonalEdgeStyle;rounded=0;orthogonalLoop=1;jettySize=auto;html=1;exitX=0.5;exitY=1;exitDx=0;exitDy=0;entryX=0.5;entryY=0;entryDx=0;entryDy=0;" parent="1" source="l8WocCBfgrIKf2EqdKtJ-54" target="hwdTm1FOQKXtMTgNsfww-4" edge="1">
          <mxGeometry relative="1" as="geometry" />
        </mxCell>
        <mxCell id="l8WocCBfgrIKf2EqdKtJ-54" value="Cek Interaksi" style="whiteSpace=wrap;html=1;strokeWidth=2;rounded=1;arcSize=12;" parent="1" vertex="1">
          <mxGeometry x="-92" y="1360" width="100" height="40" as="geometry" />
        </mxCell>
        <mxCell id="hwdTm1FOQKXtMTgNsfww-5" style="edgeStyle=orthogonalEdgeStyle;rounded=0;orthogonalLoop=1;jettySize=auto;html=1;exitX=0.5;exitY=1;exitDx=0;exitDy=0;entryX=0.5;entryY=0;entryDx=0;entryDy=0;" parent="1" source="l8WocCBfgrIKf2EqdKtJ-55" target="hwdTm1FOQKXtMTgNsfww-3" edge="1">
          <mxGeometry relative="1" as="geometry" />
        </mxCell>
        <mxCell id="l8WocCBfgrIKf2EqdKtJ-55" value="Logout" style="whiteSpace=wrap;html=1;strokeWidth=2;rounded=1;arcSize=12;" parent="1" vertex="1">
          <mxGeometry x="-370" y="1360" width="100" height="40" as="geometry" />
        </mxCell>
        <mxCell id="l8WocCBfgrIKf2EqdKtJ-56" style="edgeStyle=orthogonalEdgeStyle;rounded=0;orthogonalLoop=1;jettySize=auto;html=1;exitX=1;exitY=0.5;exitDx=0;exitDy=0;entryX=0.5;entryY=0;entryDx=0;entryDy=0;" parent="1" source="l8WocCBfgrIKf2EqdKtJ-60" target="l8WocCBfgrIKf2EqdKtJ-52" edge="1">
          <mxGeometry relative="1" as="geometry" />
        </mxCell>
        <mxCell id="l8WocCBfgrIKf2EqdKtJ-57" value="yes" style="edgeLabel;html=1;align=center;verticalAlign=middle;resizable=0;points=[];" parent="l8WocCBfgrIKf2EqdKtJ-56" vertex="1" connectable="0">
          <mxGeometry x="-0.4521" y="-3" relative="1" as="geometry">
            <mxPoint as="offset" />
          </mxGeometry>
        </mxCell>
        <mxCell id="l8WocCBfgrIKf2EqdKtJ-58" value="" style="edgeStyle=orthogonalEdgeStyle;rounded=0;orthogonalLoop=1;jettySize=auto;html=1;" parent="1" source="l8WocCBfgrIKf2EqdKtJ-60" target="l8WocCBfgrIKf2EqdKtJ-65" edge="1">
          <mxGeometry relative="1" as="geometry" />
        </mxCell>
        <mxCell id="l8WocCBfgrIKf2EqdKtJ-59" value="no" style="edgeLabel;html=1;align=center;verticalAlign=middle;resizable=0;points=[];" parent="l8WocCBfgrIKf2EqdKtJ-58" vertex="1" connectable="0">
          <mxGeometry x="-0.475" y="4" relative="1" as="geometry">
            <mxPoint as="offset" />
          </mxGeometry>
        </mxCell>
        <mxCell id="l8WocCBfgrIKf2EqdKtJ-60" value="Opsi == &#39;2&#39;" style="rhombus;whiteSpace=wrap;html=1;strokeWidth=2;rounded=1;arcSize=12;" parent="1" vertex="1">
          <mxGeometry x="-82" y="1120" width="80" height="80" as="geometry" />
        </mxCell>
        <mxCell id="l8WocCBfgrIKf2EqdKtJ-61" style="edgeStyle=orthogonalEdgeStyle;rounded=0;orthogonalLoop=1;jettySize=auto;html=1;exitX=1;exitY=0.5;exitDx=0;exitDy=0;entryX=0.5;entryY=0;entryDx=0;entryDy=0;" parent="1" source="l8WocCBfgrIKf2EqdKtJ-65" target="l8WocCBfgrIKf2EqdKtJ-54" edge="1">
          <mxGeometry relative="1" as="geometry" />
        </mxCell>
        <mxCell id="l8WocCBfgrIKf2EqdKtJ-62" value="yes" style="edgeLabel;html=1;align=center;verticalAlign=middle;resizable=0;points=[];" parent="l8WocCBfgrIKf2EqdKtJ-61" vertex="1" connectable="0">
          <mxGeometry x="-0.4417" y="1" relative="1" as="geometry">
            <mxPoint as="offset" />
          </mxGeometry>
        </mxCell>
        <mxCell id="l8WocCBfgrIKf2EqdKtJ-63" style="edgeStyle=orthogonalEdgeStyle;rounded=0;orthogonalLoop=1;jettySize=auto;html=1;entryX=0.5;entryY=0;entryDx=0;entryDy=0;" parent="1" source="l8WocCBfgrIKf2EqdKtJ-65" target="l8WocCBfgrIKf2EqdKtJ-55" edge="1">
          <mxGeometry relative="1" as="geometry" />
        </mxCell>
        <mxCell id="l8WocCBfgrIKf2EqdKtJ-64" value="no" style="edgeLabel;html=1;align=center;verticalAlign=middle;resizable=0;points=[];" parent="l8WocCBfgrIKf2EqdKtJ-63" vertex="1" connectable="0">
          <mxGeometry x="-0.4194" y="2" relative="1" as="geometry">
            <mxPoint as="offset" />
          </mxGeometry>
        </mxCell>
        <mxCell id="l8WocCBfgrIKf2EqdKtJ-65" value="Opsi == &#39;3&#39;" style="rhombus;whiteSpace=wrap;html=1;strokeWidth=2;rounded=1;arcSize=12;" parent="1" vertex="1">
          <mxGeometry x="-202" y="1240" width="80" height="80" as="geometry" />
        </mxCell>
        <mxCell id="3yaVnDyDxzLe4ceNCA5Q-2" style="edgeStyle=orthogonalEdgeStyle;rounded=0;orthogonalLoop=1;jettySize=auto;html=1;exitX=0.5;exitY=1;exitDx=0;exitDy=0;exitPerimeter=0;entryX=0.5;entryY=0;entryDx=0;entryDy=0;" parent="1" target="l8WocCBfgrIKf2EqdKtJ-40" edge="1">
          <mxGeometry relative="1" as="geometry">
            <mxPoint x="280" y="680" as="sourcePoint" />
          </mxGeometry>
        </mxCell>
        <UserObject label="5" link="data:page/id,0CCrK0nYYArgaDFsR6jY" id="p6JWMwbt8tRHhZocvczN-1">
          <mxCell style="verticalLabelPosition=bottom;verticalAlign=top;html=1;shape=offPageConnector;rounded=0;size=0.5;" parent="1" vertex="1">
            <mxGeometry x="1008" y="1200" width="60" height="60" as="geometry" />
          </mxCell>
        </UserObject>
        <UserObject label="6" link="data:page/id,_frYCf130C6jToa90CKZ" id="8A8M3nFB6FCpKB6m2liu-1">
          <mxCell style="verticalLabelPosition=bottom;verticalAlign=top;html=1;shape=offPageConnector;rounded=0;size=0.5;" parent="1" vertex="1">
            <mxGeometry x="890" y="1320" width="60" height="60" as="geometry" />
          </mxCell>
        </UserObject>
        <UserObject label="7" link="data:page/id,GgHrOz9qHiv-_I5sqoNJ" id="8A8M3nFB6FCpKB6m2liu-3">
          <mxCell style="verticalLabelPosition=bottom;verticalAlign=top;html=1;shape=offPageConnector;rounded=0;size=0.5;" parent="1" vertex="1">
            <mxGeometry x="770" y="1440" width="60" height="60" as="geometry" />
          </mxCell>
        </UserObject>
        <UserObject label="8" link="data:page/id,-TYRjAAz3L_bjJJ2mlKB" id="8A8M3nFB6FCpKB6m2liu-5">
          <mxCell style="verticalLabelPosition=bottom;verticalAlign=top;html=1;shape=offPageConnector;rounded=0;size=0.5;" parent="1" vertex="1">
            <mxGeometry x="650" y="1560" width="60" height="60" as="geometry" />
          </mxCell>
        </UserObject>
        <UserObject label="9" link="data:page/id,k2bEwBJRmWPJOc3vEHKX" id="8A8M3nFB6FCpKB6m2liu-7">
          <mxCell style="verticalLabelPosition=bottom;verticalAlign=top;html=1;shape=offPageConnector;rounded=0;size=0.5;" parent="1" vertex="1">
            <mxGeometry x="530" y="1680" width="60" height="60" as="geometry" />
          </mxCell>
        </UserObject>
        <UserObject label="3" link="data:page/id,C5RBs43oDa-KdzZeNtuy" id="8A8M3nFB6FCpKB6m2liu-9">
          <mxCell style="verticalLabelPosition=bottom;verticalAlign=top;html=1;shape=offPageConnector;rounded=0;size=0.5;" parent="1" vertex="1">
            <mxGeometry x="288" y="1680" width="60" height="60" as="geometry" />
          </mxCell>
        </UserObject>
        <UserObject label="5" link="data:page/id,0CCrK0nYYArgaDFsR6jY" id="hwdTm1FOQKXtMTgNsfww-1">
          <mxCell style="verticalLabelPosition=bottom;verticalAlign=top;html=1;shape=offPageConnector;rounded=0;size=0.5;" parent="1" vertex="1">
            <mxGeometry x="168" y="1200" width="60" height="60" as="geometry" />
          </mxCell>
        </UserObject>
        <UserObject label="6" link="data:page/id,_frYCf130C6jToa90CKZ" id="hwdTm1FOQKXtMTgNsfww-2">
          <mxCell style="verticalLabelPosition=bottom;verticalAlign=top;html=1;shape=offPageConnector;rounded=0;size=0.5;" parent="1" vertex="1">
            <mxGeometry x="47" y="1320" width="60" height="60" as="geometry" />
          </mxCell>
        </UserObject>
        <UserObject label="3" link="data:page/id,C5RBs43oDa-KdzZeNtuy" id="hwdTm1FOQKXtMTgNsfww-3">
          <mxCell style="verticalLabelPosition=bottom;verticalAlign=top;html=1;shape=offPageConnector;rounded=0;size=0.5;" parent="1" vertex="1">
            <mxGeometry x="-350" y="1440" width="60" height="60" as="geometry" />
          </mxCell>
        </UserObject>
        <UserObject label="9" link="data:page/id,k2bEwBJRmWPJOc3vEHKX" id="hwdTm1FOQKXtMTgNsfww-4">
          <mxCell style="verticalLabelPosition=bottom;verticalAlign=top;html=1;shape=offPageConnector;rounded=0;size=0.5;" parent="1" vertex="1">
            <mxGeometry x="-72" y="1440" width="60" height="60" as="geometry" />
          </mxCell>
        </UserObject>
        <mxCell id="bYu3AMd6phOoIlYrwxew-2" style="edgeStyle=orthogonalEdgeStyle;rounded=0;orthogonalLoop=1;jettySize=auto;html=1;exitX=0.5;exitY=1;exitDx=0;exitDy=0;entryX=0.5;entryY=0;entryDx=0;entryDy=0;" parent="1" source="bYu3AMd6phOoIlYrwxew-1" target="l8WocCBfgrIKf2EqdKtJ-40" edge="1">
          <mxGeometry relative="1" as="geometry" />
        </mxCell>
        <mxCell id="bYu3AMd6phOoIlYrwxew-1" value="4" style="verticalLabelPosition=bottom;verticalAlign=top;html=1;shape=offPageConnector;rounded=0;size=0.5;" parent="1" vertex="1">
          <mxGeometry x="250" y="620" width="60" height="60" as="geometry" />
        </mxCell>
      </root>
    </mxGraphModel>
  </diagram>
  <diagram id="KT9KhmuWsmm2xTx8V9r3" name="Fitur Registrasi">
    <mxGraphModel dx="1069" dy="1027" grid="0" gridSize="10" guides="1" tooltips="1" connect="1" arrows="1" fold="1" page="1" pageScale="1" pageWidth="850" pageHeight="1100" math="0" shadow="0">
      <root>
        <mxCell id="0" />
        <mxCell id="1" parent="0" />
        <mxCell id="_kWxOt-iwRlBfxx_wQsn-1" style="edgeStyle=orthogonalEdgeStyle;rounded=0;orthogonalLoop=1;jettySize=auto;html=1;labelBackgroundColor=none;fontColor=default;" parent="1" source="_kWxOt-iwRlBfxx_wQsn-2" target="_kWxOt-iwRlBfxx_wQsn-4" edge="1">
          <mxGeometry relative="1" as="geometry" />
        </mxCell>
        <mxCell id="_kWxOt-iwRlBfxx_wQsn-2" value="&quot;===REGISTRASI===&lt;div&gt;Username :&lt;/div&gt;&lt;div&gt;Password :&lt;span style=&quot;background-color: initial;&quot;&gt;&quot;&lt;/span&gt;&lt;/div&gt;" style="shape=parallelogram;perimeter=parallelogramPerimeter;whiteSpace=wrap;html=1;fixedSize=1;labelBackgroundColor=none;" parent="1" vertex="1">
          <mxGeometry x="2006" y="160" width="236" height="70" as="geometry" />
        </mxCell>
        <mxCell id="_kWxOt-iwRlBfxx_wQsn-3" style="edgeStyle=orthogonalEdgeStyle;rounded=0;orthogonalLoop=1;jettySize=auto;html=1;entryX=0.5;entryY=0;entryDx=0;entryDy=0;labelBackgroundColor=none;fontColor=default;" parent="1" source="_kWxOt-iwRlBfxx_wQsn-4" target="_kWxOt-iwRlBfxx_wQsn-7" edge="1">
          <mxGeometry relative="1" as="geometry" />
        </mxCell>
        <mxCell id="_kWxOt-iwRlBfxx_wQsn-4" value="Input Username dan Password" style="shape=parallelogram;perimeter=parallelogramPerimeter;whiteSpace=wrap;html=1;fixedSize=1;labelBackgroundColor=none;" parent="1" vertex="1">
          <mxGeometry x="2050" y="320" width="148" height="50" as="geometry" />
        </mxCell>
        <mxCell id="_kWxOt-iwRlBfxx_wQsn-5" style="edgeStyle=orthogonalEdgeStyle;rounded=0;orthogonalLoop=1;jettySize=auto;html=1;entryX=0.5;entryY=0;entryDx=0;entryDy=0;labelBackgroundColor=none;fontColor=default;" parent="1" source="_kWxOt-iwRlBfxx_wQsn-7" target="_kWxOt-iwRlBfxx_wQsn-9" edge="1">
          <mxGeometry relative="1" as="geometry" />
        </mxCell>
        <mxCell id="_kWxOt-iwRlBfxx_wQsn-6" style="edgeStyle=orthogonalEdgeStyle;rounded=0;orthogonalLoop=1;jettySize=auto;html=1;labelBackgroundColor=none;fontColor=default;" parent="1" source="_kWxOt-iwRlBfxx_wQsn-7" target="_kWxOt-iwRlBfxx_wQsn-11" edge="1">
          <mxGeometry relative="1" as="geometry" />
        </mxCell>
        <mxCell id="_kWxOt-iwRlBfxx_wQsn-7" value="username not in users" style="rhombus;whiteSpace=wrap;html=1;labelBackgroundColor=none;" parent="1" vertex="1">
          <mxGeometry x="2071" y="425" width="106" height="100" as="geometry" />
        </mxCell>
        <mxCell id="_kWxOt-iwRlBfxx_wQsn-8" style="edgeStyle=orthogonalEdgeStyle;rounded=0;orthogonalLoop=1;jettySize=auto;html=1;labelBackgroundColor=none;fontColor=default;" parent="1" source="_kWxOt-iwRlBfxx_wQsn-9" target="_kWxOt-iwRlBfxx_wQsn-20" edge="1">
          <mxGeometry relative="1" as="geometry">
            <Array as="points">
              <mxPoint x="2439" y="980" />
            </Array>
            <mxPoint x="2180" y="980" as="targetPoint" />
          </mxGeometry>
        </mxCell>
        <mxCell id="_kWxOt-iwRlBfxx_wQsn-9" value="&quot;Registrasi berhasil {username} telah ditambahkan sebagai pengguna biasa.&amp;nbsp;&lt;div&gt;Silahkan Login&quot;&lt;/div&gt;" style="shape=parallelogram;perimeter=parallelogramPerimeter;whiteSpace=wrap;html=1;fixedSize=1;labelBackgroundColor=none;" parent="1" vertex="1">
          <mxGeometry x="2370" y="555" width="138" height="95" as="geometry" />
        </mxCell>
        <mxCell id="_kWxOt-iwRlBfxx_wQsn-10" style="edgeStyle=orthogonalEdgeStyle;rounded=0;orthogonalLoop=1;jettySize=auto;html=1;entryX=0;entryY=0.25;entryDx=0;entryDy=0;labelBackgroundColor=none;fontColor=default;" parent="1" source="_kWxOt-iwRlBfxx_wQsn-11" target="_kWxOt-iwRlBfxx_wQsn-20" edge="1">
          <mxGeometry relative="1" as="geometry">
            <Array as="points">
              <mxPoint x="1800" y="980" />
            </Array>
            <mxPoint x="2080" y="980" as="targetPoint" />
          </mxGeometry>
        </mxCell>
        <mxCell id="_kWxOt-iwRlBfxx_wQsn-11" value="&quot;Username telah terdaftar!!&quot;" style="shape=parallelogram;perimeter=parallelogramPerimeter;whiteSpace=wrap;html=1;fixedSize=1;labelBackgroundColor=none;" parent="1" vertex="1">
          <mxGeometry x="1730" y="600" width="128" height="65" as="geometry" />
        </mxCell>
        <mxCell id="_kWxOt-iwRlBfxx_wQsn-12" value="yes" style="text;html=1;align=center;verticalAlign=middle;resizable=0;points=[];autosize=1;labelBackgroundColor=none;" parent="1" vertex="1">
          <mxGeometry x="2202" y="450" width="40" height="30" as="geometry" />
        </mxCell>
        <mxCell id="_kWxOt-iwRlBfxx_wQsn-13" value="no" style="text;html=1;align=center;verticalAlign=middle;resizable=0;points=[];autosize=1;labelBackgroundColor=none;" parent="1" vertex="1">
          <mxGeometry x="2010" y="450" width="40" height="30" as="geometry" />
        </mxCell>
        <mxCell id="_kWxOt-iwRlBfxx_wQsn-14" value="" style="edgeStyle=none;orthogonalLoop=1;jettySize=auto;html=1;rounded=0;entryX=0.086;entryY=0.204;entryDx=0;entryDy=0;entryPerimeter=0;labelBackgroundColor=none;fontColor=default;" parent="1" target="_kWxOt-iwRlBfxx_wQsn-4" edge="1">
          <mxGeometry width="100" relative="1" as="geometry">
            <mxPoint x="2010" y="330" as="sourcePoint" />
            <mxPoint x="2060" y="330" as="targetPoint" />
            <Array as="points" />
          </mxGeometry>
        </mxCell>
        <mxCell id="_kWxOt-iwRlBfxx_wQsn-15" value="" style="edgeStyle=none;orthogonalLoop=1;jettySize=auto;html=1;rounded=0;labelBackgroundColor=none;fontColor=default;" parent="1" edge="1">
          <mxGeometry width="100" relative="1" as="geometry">
            <mxPoint x="2490" y="640" as="sourcePoint" />
            <mxPoint x="2540" y="640" as="targetPoint" />
            <Array as="points" />
          </mxGeometry>
        </mxCell>
        <mxCell id="_kWxOt-iwRlBfxx_wQsn-16" value="" style="edgeStyle=none;orthogonalLoop=1;jettySize=auto;html=1;rounded=0;labelBackgroundColor=none;fontColor=default;" parent="1" edge="1">
          <mxGeometry width="100" relative="1" as="geometry">
            <mxPoint x="1840" y="660" as="sourcePoint" />
            <mxPoint x="1886" y="660" as="targetPoint" />
            <Array as="points" />
          </mxGeometry>
        </mxCell>
        <mxCell id="_kWxOt-iwRlBfxx_wQsn-17" value="" style="edgeStyle=none;orthogonalLoop=1;jettySize=auto;html=1;rounded=0;exitX=0.928;exitY=0.857;exitDx=0;exitDy=0;exitPerimeter=0;labelBackgroundColor=none;fontColor=default;" parent="1" source="_kWxOt-iwRlBfxx_wQsn-2" edge="1">
          <mxGeometry width="100" relative="1" as="geometry">
            <mxPoint x="2230" y="220" as="sourcePoint" />
            <mxPoint x="2280" y="220" as="targetPoint" />
            <Array as="points" />
          </mxGeometry>
        </mxCell>
        <mxCell id="_kWxOt-iwRlBfxx_wQsn-18" style="edgeStyle=orthogonalEdgeStyle;rounded=0;orthogonalLoop=1;jettySize=auto;html=1;entryX=0.5;entryY=0;entryDx=0;entryDy=0;labelBackgroundColor=none;fontColor=default;" parent="1" source="0a_FVuVps1XhvUze1dnQ-1" target="_kWxOt-iwRlBfxx_wQsn-2" edge="1">
          <mxGeometry relative="1" as="geometry">
            <Array as="points">
              <mxPoint x="2124" y="60" />
            </Array>
            <mxPoint x="1950" y="60" as="sourcePoint" />
          </mxGeometry>
        </mxCell>
        <UserObject label="3" link="data:page/id,C5RBs43oDa-KdzZeNtuy" id="_kWxOt-iwRlBfxx_wQsn-20">
          <mxCell style="verticalLabelPosition=bottom;verticalAlign=top;html=1;shape=offPageConnector;rounded=0;size=0.5;labelBackgroundColor=none;" parent="1" vertex="1">
            <mxGeometry x="2087" y="960" width="90" height="80" as="geometry" />
          </mxCell>
        </UserObject>
        <mxCell id="0a_FVuVps1XhvUze1dnQ-2" value="" style="edgeStyle=orthogonalEdgeStyle;rounded=0;orthogonalLoop=1;jettySize=auto;html=1;entryX=0.5;entryY=0;entryDx=0;entryDy=0;labelBackgroundColor=none;fontColor=default;" parent="1" target="0a_FVuVps1XhvUze1dnQ-1" edge="1">
          <mxGeometry relative="1" as="geometry">
            <Array as="points" />
            <mxPoint x="1950" y="60" as="sourcePoint" />
            <mxPoint x="2124" y="160" as="targetPoint" />
          </mxGeometry>
        </mxCell>
        <mxCell id="0a_FVuVps1XhvUze1dnQ-1" value="1" style="verticalLabelPosition=bottom;verticalAlign=top;html=1;shape=offPageConnector;rounded=0;size=0.5;" parent="1" vertex="1">
          <mxGeometry x="1890" y="40" width="60" height="60" as="geometry" />
        </mxCell>
      </root>
    </mxGraphModel>
  </diagram>
  <diagram id="AMZ4y96Dd5lvssltNROi" name="Fitur Login">
    <mxGraphModel dx="1677" dy="770" grid="0" gridSize="10" guides="1" tooltips="1" connect="1" arrows="1" fold="1" page="1" pageScale="1" pageWidth="850" pageHeight="1100" math="0" shadow="0">
      <root>
        <mxCell id="0" />
        <mxCell id="1" parent="0" />
        <mxCell id="4ptR9MsZx8iEggep6IUE-1" style="edgeStyle=orthogonalEdgeStyle;rounded=0;orthogonalLoop=1;jettySize=auto;html=1;labelBackgroundColor=none;fontColor=default;" parent="1" source="4ptR9MsZx8iEggep6IUE-2" target="4ptR9MsZx8iEggep6IUE-4" edge="1">
          <mxGeometry relative="1" as="geometry" />
        </mxCell>
        <mxCell id="4ptR9MsZx8iEggep6IUE-2" value="&quot;===LOGIN===&lt;div&gt;Username :&lt;/div&gt;&lt;div&gt;Password : &quot;&lt;/div&gt;" style="shape=parallelogram;perimeter=parallelogramPerimeter;whiteSpace=wrap;html=1;fixedSize=1;labelBackgroundColor=none;" parent="1" vertex="1">
          <mxGeometry x="365" y="310" width="120" height="60" as="geometry" />
        </mxCell>
        <mxCell id="4ptR9MsZx8iEggep6IUE-3" value="" style="edgeStyle=orthogonalEdgeStyle;rounded=0;orthogonalLoop=1;jettySize=auto;html=1;labelBackgroundColor=none;fontColor=default;" parent="1" source="4ptR9MsZx8iEggep6IUE-4" target="4ptR9MsZx8iEggep6IUE-7" edge="1">
          <mxGeometry relative="1" as="geometry" />
        </mxCell>
        <mxCell id="4ptR9MsZx8iEggep6IUE-4" value="Input Username dan Password" style="shape=parallelogram;perimeter=parallelogramPerimeter;whiteSpace=wrap;html=1;fixedSize=1;labelBackgroundColor=none;" parent="1" vertex="1">
          <mxGeometry x="355" y="450" width="140" height="55" as="geometry" />
        </mxCell>
        <mxCell id="4ptR9MsZx8iEggep6IUE-5" style="edgeStyle=orthogonalEdgeStyle;rounded=0;orthogonalLoop=1;jettySize=auto;html=1;labelBackgroundColor=none;fontColor=default;" parent="1" source="4ptR9MsZx8iEggep6IUE-7" target="4ptR9MsZx8iEggep6IUE-9" edge="1">
          <mxGeometry relative="1" as="geometry" />
        </mxCell>
        <mxCell id="4ptR9MsZx8iEggep6IUE-7" value="Username&lt;div&gt;&amp;nbsp;dan Password&amp;nbsp;&lt;/div&gt;&lt;div&gt;in users&lt;/div&gt;" style="rhombus;whiteSpace=wrap;html=1;labelBackgroundColor=none;" parent="1" vertex="1">
          <mxGeometry x="378" y="582.5" width="95" height="87.5" as="geometry" />
        </mxCell>
        <mxCell id="4ptR9MsZx8iEggep6IUE-8" value="" style="edgeStyle=orthogonalEdgeStyle;rounded=0;orthogonalLoop=1;jettySize=auto;html=1;labelBackgroundColor=none;fontColor=default;" parent="1" source="4ptR9MsZx8iEggep6IUE-9" edge="1">
          <mxGeometry relative="1" as="geometry">
            <mxPoint x="265" y="800" as="targetPoint" />
          </mxGeometry>
        </mxCell>
        <mxCell id="4ptR9MsZx8iEggep6IUE-9" value="&quot;Login gagal!! Username atau password salah.&quot;" style="shape=parallelogram;perimeter=parallelogramPerimeter;whiteSpace=wrap;html=1;fixedSize=1;labelBackgroundColor=none;" parent="1" vertex="1">
          <mxGeometry x="205" y="690" width="120" height="60" as="geometry" />
        </mxCell>
        <mxCell id="4ptR9MsZx8iEggep6IUE-13" value="yes" style="text;html=1;align=center;verticalAlign=middle;resizable=0;points=[];autosize=1;labelBackgroundColor=none;" parent="1" vertex="1">
          <mxGeometry x="490" y="600" width="40" height="30" as="geometry" />
        </mxCell>
        <mxCell id="4ptR9MsZx8iEggep6IUE-14" value="no" style="text;html=1;align=center;verticalAlign=middle;resizable=0;points=[];autosize=1;labelBackgroundColor=none;" parent="1" vertex="1">
          <mxGeometry x="325" y="600" width="40" height="30" as="geometry" />
        </mxCell>
        <mxCell id="4ptR9MsZx8iEggep6IUE-15" value="" style="edgeStyle=none;orthogonalLoop=1;jettySize=auto;html=1;rounded=0;labelBackgroundColor=none;fontColor=default;" parent="1" edge="1">
          <mxGeometry width="100" relative="1" as="geometry">
            <mxPoint x="470" y="360" as="sourcePoint" />
            <mxPoint x="520" y="360" as="targetPoint" />
            <Array as="points" />
          </mxGeometry>
        </mxCell>
        <mxCell id="4ptR9MsZx8iEggep6IUE-16" value="" style="edgeStyle=none;orthogonalLoop=1;jettySize=auto;html=1;rounded=0;labelBackgroundColor=none;fontColor=default;" parent="1" edge="1">
          <mxGeometry width="100" relative="1" as="geometry">
            <mxPoint x="320" y="460" as="sourcePoint" />
            <mxPoint x="370" y="460" as="targetPoint" />
            <Array as="points" />
          </mxGeometry>
        </mxCell>
        <mxCell id="4ptR9MsZx8iEggep6IUE-17" value="" style="edgeStyle=none;orthogonalLoop=1;jettySize=auto;html=1;rounded=0;labelBackgroundColor=none;fontColor=default;" parent="1" edge="1">
          <mxGeometry width="100" relative="1" as="geometry">
            <mxPoint x="310" y="740" as="sourcePoint" />
            <mxPoint x="355" y="740" as="targetPoint" />
            <Array as="points" />
          </mxGeometry>
        </mxCell>
        <mxCell id="4ptR9MsZx8iEggep6IUE-22" value="" style="edgeStyle=orthogonalEdgeStyle;rounded=0;orthogonalLoop=1;jettySize=auto;html=1;labelBackgroundColor=none;fontColor=default;" parent="1" source="tRmhRcUQzaaYtYm6ed6D-1" target="4ptR9MsZx8iEggep6IUE-2" edge="1">
          <mxGeometry relative="1" as="geometry">
            <mxPoint x="265" y="340" as="sourcePoint" />
          </mxGeometry>
        </mxCell>
        <UserObject label="3" link="data:page/id,C5RBs43oDa-KdzZeNtuy" id="4ptR9MsZx8iEggep6IUE-24">
          <mxCell style="verticalLabelPosition=bottom;verticalAlign=top;html=1;shape=offPageConnector;rounded=0;size=0.5;labelBackgroundColor=none;" parent="1" vertex="1">
            <mxGeometry x="235" y="800" width="60" height="60" as="geometry" />
          </mxCell>
        </UserObject>
        <mxCell id="t17BHTsa2fgu5Znw51Gn-1" value="" style="edgeStyle=orthogonalEdgeStyle;rounded=0;orthogonalLoop=1;jettySize=auto;html=1;labelBackgroundColor=none;fontColor=default;" parent="1" source="4ptR9MsZx8iEggep6IUE-7" target="3ofAk4SQGlWK5JJ8z-W4-1" edge="1">
          <mxGeometry relative="1" as="geometry">
            <mxPoint x="473" y="626" as="sourcePoint" />
            <mxPoint x="565.0588235294119" y="690.0522875816996" as="targetPoint" />
          </mxGeometry>
        </mxCell>
        <UserObject label="4" link="data:page/id,0SJwvxfQRwlbceAc_MAZ" id="3ofAk4SQGlWK5JJ8z-W4-1">
          <mxCell style="verticalLabelPosition=bottom;verticalAlign=top;html=1;shape=offPageConnector;rounded=0;size=0.5;" parent="1" vertex="1">
            <mxGeometry x="530" y="680" width="60" height="60" as="geometry" />
          </mxCell>
        </UserObject>
        <mxCell id="tRmhRcUQzaaYtYm6ed6D-1" value="2" style="verticalLabelPosition=bottom;verticalAlign=top;html=1;shape=offPageConnector;rounded=0;size=0.5;" parent="1" vertex="1">
          <mxGeometry x="170" y="310" width="60" height="60" as="geometry" />
        </mxCell>
      </root>
    </mxGraphModel>
  </diagram>
  <diagram id="0CCrK0nYYArgaDFsR6jY" name="Tambah Karakter">
    <mxGraphModel dx="2236" dy="1027" grid="0" gridSize="10" guides="1" tooltips="1" connect="1" arrows="1" fold="1" page="1" pageScale="1" pageWidth="850" pageHeight="1100" math="0" shadow="0">
      <root>
        <mxCell id="0" />
        <mxCell id="1" parent="0" />
        <mxCell id="SKdVWKZTqSS4OgkMV70X-1" value="" style="edgeStyle=orthogonalEdgeStyle;rounded=0;orthogonalLoop=1;jettySize=auto;html=1;" parent="1" source="SKdVWKZTqSS4OgkMV70X-2" target="SKdVWKZTqSS4OgkMV70X-4" edge="1">
          <mxGeometry relative="1" as="geometry" />
        </mxCell>
        <mxCell id="SKdVWKZTqSS4OgkMV70X-2" value="input nama" style="shape=parallelogram;html=1;strokeWidth=2;perimeter=parallelogramPerimeter;whiteSpace=wrap;rounded=1;arcSize=12;size=0.23;" parent="1" vertex="1">
          <mxGeometry x="390" y="310" width="100" height="60" as="geometry" />
        </mxCell>
        <mxCell id="SKdVWKZTqSS4OgkMV70X-3" value="" style="edgeStyle=orthogonalEdgeStyle;rounded=0;orthogonalLoop=1;jettySize=auto;html=1;" parent="1" source="SKdVWKZTqSS4OgkMV70X-4" target="SKdVWKZTqSS4OgkMV70X-6" edge="1">
          <mxGeometry relative="1" as="geometry" />
        </mxCell>
        <mxCell id="SKdVWKZTqSS4OgkMV70X-4" value="input umur" style="shape=parallelogram;html=1;strokeWidth=2;perimeter=parallelogramPerimeter;whiteSpace=wrap;rounded=1;arcSize=12;size=0.23;" parent="1" vertex="1">
          <mxGeometry x="390" y="410" width="100" height="60" as="geometry" />
        </mxCell>
        <mxCell id="SKdVWKZTqSS4OgkMV70X-5" value="" style="edgeStyle=orthogonalEdgeStyle;rounded=0;orthogonalLoop=1;jettySize=auto;html=1;" parent="1" source="SKdVWKZTqSS4OgkMV70X-6" target="SKdVWKZTqSS4OgkMV70X-8" edge="1">
          <mxGeometry relative="1" as="geometry" />
        </mxCell>
        <mxCell id="SKdVWKZTqSS4OgkMV70X-6" value="input gender" style="shape=parallelogram;html=1;strokeWidth=2;perimeter=parallelogramPerimeter;whiteSpace=wrap;rounded=1;arcSize=12;size=0.23;" parent="1" vertex="1">
          <mxGeometry x="390" y="510" width="100" height="60" as="geometry" />
        </mxCell>
        <mxCell id="SKdVWKZTqSS4OgkMV70X-7" value="" style="edgeStyle=orthogonalEdgeStyle;rounded=0;orthogonalLoop=1;jettySize=auto;html=1;" parent="1" source="SKdVWKZTqSS4OgkMV70X-8" target="SKdVWKZTqSS4OgkMV70X-10" edge="1">
          <mxGeometry relative="1" as="geometry" />
        </mxCell>
        <mxCell id="SKdVWKZTqSS4OgkMV70X-8" value="print (&lt;span style=&quot;font-family: Consolas, &amp;quot;Courier New&amp;quot;, monospace; font-size: 14px; white-space: pre; color: rgb(206, 145, 120);&quot;&gt;&quot;https://www.16personalities.com/id/tes-kepribadian&quot;)&lt;/span&gt;" style="rounded=0;whiteSpace=wrap;html=1;" parent="1" vertex="1">
          <mxGeometry x="220" y="610" width="440" height="60" as="geometry" />
        </mxCell>
        <mxCell id="SKdVWKZTqSS4OgkMV70X-9" value="" style="edgeStyle=orthogonalEdgeStyle;rounded=0;orthogonalLoop=1;jettySize=auto;html=1;" parent="1" source="SKdVWKZTqSS4OgkMV70X-10" target="SKdVWKZTqSS4OgkMV70X-11" edge="1">
          <mxGeometry relative="1" as="geometry" />
        </mxCell>
        <mxCell id="SKdVWKZTqSS4OgkMV70X-10" value="Input MBTI" style="shape=parallelogram;html=1;strokeWidth=2;perimeter=parallelogramPerimeter;whiteSpace=wrap;rounded=1;arcSize=12;size=0.23;" parent="1" vertex="1">
          <mxGeometry x="390" y="720" width="100" height="60" as="geometry" />
        </mxCell>
        <mxCell id="SKdVWKZTqSS4OgkMV70X-11" value="karakter_info[nama] = {&lt;div&gt;&#39;umur&#39; = umur,&lt;/div&gt;&lt;div&gt;&#39;gender&#39; = gender,&lt;/div&gt;&lt;div&gt;&#39;mbti&#39; = mbti&lt;/div&gt;&lt;div&gt;}&lt;/div&gt;" style="rounded=0;whiteSpace=wrap;html=1;" parent="1" vertex="1">
          <mxGeometry x="360" y="840" width="160" height="70" as="geometry" />
        </mxCell>
        <mxCell id="SKdVWKZTqSS4OgkMV70X-12" value="" style="edgeStyle=orthogonalEdgeStyle;rounded=0;orthogonalLoop=1;jettySize=auto;html=1;" parent="1" source="SKdVWKZTqSS4OgkMV70X-13" target="SKdVWKZTqSS4OgkMV70X-2" edge="1">
          <mxGeometry relative="1" as="geometry" />
        </mxCell>
        <mxCell id="SKdVWKZTqSS4OgkMV70X-13" value="Tambah Karakter" style="rounded=0;whiteSpace=wrap;html=1;" parent="1" vertex="1">
          <mxGeometry x="380" y="210" width="120" height="60" as="geometry" />
        </mxCell>
        <mxCell id="9yOXgTdPgcibA63DAA4m-2" value="" style="endArrow=classic;html=1;rounded=0;entryX=0;entryY=0.25;entryDx=0;entryDy=0;" parent="1" edge="1">
          <mxGeometry width="50" height="50" relative="1" as="geometry">
            <mxPoint x="365" y="320" as="sourcePoint" />
            <mxPoint x="410" y="320" as="targetPoint" />
          </mxGeometry>
        </mxCell>
        <mxCell id="9yOXgTdPgcibA63DAA4m-3" value="" style="endArrow=classic;html=1;rounded=0;entryX=0;entryY=0.25;entryDx=0;entryDy=0;" parent="1" edge="1">
          <mxGeometry width="50" height="50" relative="1" as="geometry">
            <mxPoint x="365" y="520" as="sourcePoint" />
            <mxPoint x="410" y="520" as="targetPoint" />
          </mxGeometry>
        </mxCell>
        <mxCell id="9yOXgTdPgcibA63DAA4m-4" value="" style="endArrow=classic;html=1;rounded=0;entryX=0;entryY=0.25;entryDx=0;entryDy=0;" parent="1" edge="1">
          <mxGeometry width="50" height="50" relative="1" as="geometry">
            <mxPoint x="365" y="730" as="sourcePoint" />
            <mxPoint x="410" y="730" as="targetPoint" />
          </mxGeometry>
        </mxCell>
        <mxCell id="9yOXgTdPgcibA63DAA4m-5" value="" style="endArrow=classic;html=1;rounded=0;entryX=0;entryY=0.25;entryDx=0;entryDy=0;" parent="1" edge="1">
          <mxGeometry width="50" height="50" relative="1" as="geometry">
            <mxPoint x="365" y="420" as="sourcePoint" />
            <mxPoint x="410" y="420" as="targetPoint" />
          </mxGeometry>
        </mxCell>
        <mxCell id="NHAhVa7JqBLbrN02HH6W-2" style="edgeStyle=orthogonalEdgeStyle;rounded=0;orthogonalLoop=1;jettySize=auto;html=1;exitX=0.5;exitY=1;exitDx=0;exitDy=0;entryX=0.5;entryY=0;entryDx=0;entryDy=0;" parent="1" source="NHAhVa7JqBLbrN02HH6W-1" target="SKdVWKZTqSS4OgkMV70X-13" edge="1">
          <mxGeometry relative="1" as="geometry" />
        </mxCell>
        <mxCell id="NHAhVa7JqBLbrN02HH6W-1" value="karakter_info = {}" style="rounded=0;whiteSpace=wrap;html=1;" parent="1" vertex="1">
          <mxGeometry x="380" y="120" width="120" height="40" as="geometry" />
        </mxCell>
        <mxCell id="YANKEoCImktz0SzTPbU--2" style="edgeStyle=orthogonalEdgeStyle;rounded=0;orthogonalLoop=1;jettySize=auto;html=1;exitX=0.5;exitY=1;exitDx=0;exitDy=0;exitPerimeter=0;entryX=0.5;entryY=0;entryDx=0;entryDy=0;" parent="1" target="NHAhVa7JqBLbrN02HH6W-1" edge="1">
          <mxGeometry relative="1" as="geometry">
            <mxPoint x="440" y="80" as="sourcePoint" />
          </mxGeometry>
        </mxCell>
        <mxCell id="YCEbI8g83U9WQDESVl8_-2" value="" style="edgeStyle=orthogonalEdgeStyle;rounded=0;orthogonalLoop=1;jettySize=auto;html=1;exitX=0.5;exitY=1;exitDx=0;exitDy=0;entryX=0.5;entryY=0;entryDx=0;entryDy=0;" parent="1" source="SKdVWKZTqSS4OgkMV70X-11" target="YCEbI8g83U9WQDESVl8_-1" edge="1">
          <mxGeometry relative="1" as="geometry">
            <mxPoint x="440" y="910" as="sourcePoint" />
            <mxPoint x="440" y="960" as="targetPoint" />
          </mxGeometry>
        </mxCell>
        <UserObject label="4" link="data:page/id,0SJwvxfQRwlbceAc_MAZ" id="YCEbI8g83U9WQDESVl8_-1">
          <mxCell style="verticalLabelPosition=bottom;verticalAlign=top;html=1;shape=offPageConnector;rounded=0;size=0.5;" parent="1" vertex="1">
            <mxGeometry x="410" y="960" width="60" height="60" as="geometry" />
          </mxCell>
        </UserObject>
        <mxCell id="vciCq7Vby6wIZS0bptu5-1" value="5" style="verticalLabelPosition=bottom;verticalAlign=top;html=1;shape=offPageConnector;rounded=0;size=0.5;" parent="1" vertex="1">
          <mxGeometry x="410" y="20" width="60" height="60" as="geometry" />
        </mxCell>
      </root>
    </mxGraphModel>
  </diagram>
  <diagram id="_frYCf130C6jToa90CKZ" name="Lihat Karakter">
    <mxGraphModel dx="1677" dy="770" grid="0" gridSize="10" guides="1" tooltips="1" connect="1" arrows="1" fold="1" page="1" pageScale="1" pageWidth="850" pageHeight="1100" math="0" shadow="0">
      <root>
        <mxCell id="0" />
        <mxCell id="1" parent="0" />
        <mxCell id="hZQH3iJ55ECkpAer53l4-5" value="" style="edgeStyle=orthogonalEdgeStyle;rounded=0;orthogonalLoop=1;jettySize=auto;html=1;" parent="1" source="wuIqlVLgeWgiDpSBrnmN-13" target="hZQH3iJ55ECkpAer53l4-4" edge="1">
          <mxGeometry relative="1" as="geometry" />
        </mxCell>
        <mxCell id="wuIqlVLgeWgiDpSBrnmN-13" value="Lihat Karakter" style="rounded=0;whiteSpace=wrap;html=1;" parent="1" vertex="1">
          <mxGeometry x="420" y="280" width="120" height="40" as="geometry" />
        </mxCell>
        <mxCell id="hZQH3iJ55ECkpAer53l4-3" style="edgeStyle=orthogonalEdgeStyle;rounded=0;orthogonalLoop=1;jettySize=auto;html=1;exitX=0.5;exitY=1;exitDx=0;exitDy=0;entryX=0.5;entryY=0;entryDx=0;entryDy=0;" parent="1" source="hZQH3iJ55ECkpAer53l4-1" target="wuIqlVLgeWgiDpSBrnmN-13" edge="1">
          <mxGeometry relative="1" as="geometry" />
        </mxCell>
        <mxCell id="hZQH3iJ55ECkpAer53l4-1" value="karakter_info = {}" style="rounded=0;whiteSpace=wrap;html=1;" parent="1" vertex="1">
          <mxGeometry x="420" y="200" width="120" height="40" as="geometry" />
        </mxCell>
        <mxCell id="hZQH3iJ55ECkpAer53l4-7" value="" style="edgeStyle=orthogonalEdgeStyle;rounded=0;orthogonalLoop=1;jettySize=auto;html=1;" parent="1" target="hZQH3iJ55ECkpAer53l4-6" edge="1">
          <mxGeometry relative="1" as="geometry">
            <mxPoint x="532.4999999999998" y="399.9999999999999" as="sourcePoint" />
            <mxPoint x="640" y="475.0000000000001" as="targetPoint" />
          </mxGeometry>
        </mxCell>
        <mxCell id="uNWzHIINTepaqV6U08o--1" value="yes" style="edgeLabel;html=1;align=center;verticalAlign=middle;resizable=0;points=[];" parent="hZQH3iJ55ECkpAer53l4-7" vertex="1" connectable="0">
          <mxGeometry x="-0.4564" y="1" relative="1" as="geometry">
            <mxPoint as="offset" />
          </mxGeometry>
        </mxCell>
        <mxCell id="rG7sYurmkYbhecTUiTld-4" value="" style="edgeStyle=orthogonalEdgeStyle;rounded=0;orthogonalLoop=1;jettySize=auto;html=1;" parent="1" target="rG7sYurmkYbhecTUiTld-3" edge="1">
          <mxGeometry relative="1" as="geometry">
            <mxPoint x="427.5" y="401" as="sourcePoint" />
            <mxPoint x="320" y="476" as="targetPoint" />
          </mxGeometry>
        </mxCell>
        <mxCell id="uNWzHIINTepaqV6U08o--3" value="no" style="edgeLabel;html=1;align=center;verticalAlign=middle;resizable=0;points=[];" parent="rG7sYurmkYbhecTUiTld-4" vertex="1" connectable="0">
          <mxGeometry x="-0.4283" y="-2" relative="1" as="geometry">
            <mxPoint as="offset" />
          </mxGeometry>
        </mxCell>
        <mxCell id="hZQH3iJ55ECkpAer53l4-4" value="not karakter_info" style="rhombus;whiteSpace=wrap;html=1;rounded=0;" parent="1" vertex="1">
          <mxGeometry x="427.5" y="360" width="105" height="90" as="geometry" />
        </mxCell>
        <mxCell id="naTAA9Di51qatdIGqPf8-4" style="edgeStyle=orthogonalEdgeStyle;rounded=0;orthogonalLoop=1;jettySize=auto;html=1;exitX=1;exitY=0.75;exitDx=0;exitDy=0;" parent="1" source="hZQH3iJ55ECkpAer53l4-6" edge="1">
          <mxGeometry relative="1" as="geometry">
            <mxPoint x="760" y="508.66666666666663" as="targetPoint" />
          </mxGeometry>
        </mxCell>
        <mxCell id="3EhQ6nOZxPr6tvOGzW4L-7" style="edgeStyle=orthogonalEdgeStyle;rounded=0;orthogonalLoop=1;jettySize=auto;html=1;exitX=0.5;exitY=1;exitDx=0;exitDy=0;entryX=1;entryY=0.25;entryDx=0;entryDy=0;" parent="1" source="hZQH3iJ55ECkpAer53l4-6" target="3EhQ6nOZxPr6tvOGzW4L-4" edge="1">
          <mxGeometry relative="1" as="geometry" />
        </mxCell>
        <mxCell id="hZQH3iJ55ECkpAer53l4-6" value="Tidak ada karakter yang tersimpan" style="shape=parallelogram;perimeter=parallelogramPerimeter;whiteSpace=wrap;html=1;fixedSize=1;rounded=0;" parent="1" vertex="1">
          <mxGeometry x="550" y="480" width="180" height="40" as="geometry" />
        </mxCell>
        <mxCell id="fVxT_xcNwyxxXIe60Q-K-4" style="edgeStyle=orthogonalEdgeStyle;rounded=0;orthogonalLoop=1;jettySize=auto;html=1;exitX=0;exitY=0.5;exitDx=0;exitDy=0;entryX=0.5;entryY=0;entryDx=0;entryDy=0;" parent="1" source="rG7sYurmkYbhecTUiTld-3" target="rG7sYurmkYbhecTUiTld-5" edge="1">
          <mxGeometry relative="1" as="geometry" />
        </mxCell>
        <mxCell id="3EhQ6nOZxPr6tvOGzW4L-6" style="edgeStyle=orthogonalEdgeStyle;rounded=0;orthogonalLoop=1;jettySize=auto;html=1;exitX=0.5;exitY=1;exitDx=0;exitDy=0;entryX=0;entryY=0.25;entryDx=0;entryDy=0;" parent="1" source="rG7sYurmkYbhecTUiTld-3" target="3EhQ6nOZxPr6tvOGzW4L-4" edge="1">
          <mxGeometry relative="1" as="geometry" />
        </mxCell>
        <mxCell id="rG7sYurmkYbhecTUiTld-3" value="for i, j in karakter_info.items()" style="shape=hexagon;perimeter=hexagonPerimeter2;whiteSpace=wrap;html=1;fixedSize=1;rounded=0;" parent="1" vertex="1">
          <mxGeometry x="250" y="480" width="140" height="40" as="geometry" />
        </mxCell>
        <mxCell id="fVxT_xcNwyxxXIe60Q-K-13" style="edgeStyle=orthogonalEdgeStyle;rounded=0;orthogonalLoop=1;jettySize=auto;html=1;exitX=1;exitY=1;exitDx=0;exitDy=0;" parent="1" source="rG7sYurmkYbhecTUiTld-5" edge="1">
          <mxGeometry relative="1" as="geometry">
            <mxPoint x="250" y="631.4736842105265" as="targetPoint" />
          </mxGeometry>
        </mxCell>
        <mxCell id="rG7sYurmkYbhecTUiTld-5" value="Karakter {i}&lt;div&gt;Nama&amp;nbsp; : {i}&lt;/div&gt;&lt;div&gt;Umur&amp;nbsp; : {j[&#39;umur&#39;]&lt;/div&gt;&lt;div&gt;Gender&amp;nbsp; : {j[&#39;gender&#39;]&lt;/div&gt;&lt;div&gt;MBTI&amp;nbsp; : {j[&#39;mbti&#39;]&lt;/div&gt;" style="shape=parallelogram;perimeter=parallelogramPerimeter;whiteSpace=wrap;html=1;fixedSize=1;rounded=0;" parent="1" vertex="1">
          <mxGeometry x="80" y="560" width="160" height="80" as="geometry" />
        </mxCell>
        <mxCell id="fVxT_xcNwyxxXIe60Q-K-12" style="edgeStyle=orthogonalEdgeStyle;rounded=0;orthogonalLoop=1;jettySize=auto;html=1;exitX=0.5;exitY=1;exitDx=0;exitDy=0;entryX=0.193;entryY=1.024;entryDx=0;entryDy=0;entryPerimeter=0;" parent="1" source="rG7sYurmkYbhecTUiTld-5" target="rG7sYurmkYbhecTUiTld-3" edge="1">
          <mxGeometry relative="1" as="geometry">
            <Array as="points">
              <mxPoint x="160" y="680" />
              <mxPoint x="277" y="680" />
            </Array>
          </mxGeometry>
        </mxCell>
        <mxCell id="3EhQ6nOZxPr6tvOGzW4L-3" style="edgeStyle=orthogonalEdgeStyle;rounded=0;orthogonalLoop=1;jettySize=auto;html=1;exitX=0.5;exitY=1;exitDx=0;exitDy=0;exitPerimeter=0;entryX=0.5;entryY=0;entryDx=0;entryDy=0;" parent="1" target="hZQH3iJ55ECkpAer53l4-1" edge="1">
          <mxGeometry relative="1" as="geometry">
            <mxPoint x="480" y="160" as="sourcePoint" />
          </mxGeometry>
        </mxCell>
        <UserObject label="4" link="data:page/id,0SJwvxfQRwlbceAc_MAZ" id="3EhQ6nOZxPr6tvOGzW4L-4">
          <mxCell style="verticalLabelPosition=bottom;verticalAlign=top;html=1;shape=offPageConnector;rounded=0;size=0.5;" parent="1" vertex="1">
            <mxGeometry x="450" y="800" width="60" height="60" as="geometry" />
          </mxCell>
        </UserObject>
        <mxCell id="L38mkoauveYIlxgVVl5_-1" value="6" style="verticalLabelPosition=bottom;verticalAlign=top;html=1;shape=offPageConnector;rounded=0;size=0.5;" parent="1" vertex="1">
          <mxGeometry x="450" y="100" width="60" height="60" as="geometry" />
        </mxCell>
      </root>
    </mxGraphModel>
  </diagram>
  <diagram id="GgHrOz9qHiv-_I5sqoNJ" name="Update Karakter">
    <mxGraphModel dx="1411" dy="1027" grid="0" gridSize="10" guides="1" tooltips="1" connect="1" arrows="1" fold="1" page="1" pageScale="1" pageWidth="850" pageHeight="1100" math="0" shadow="0">
      <root>
        <mxCell id="0" />
        <mxCell id="1" parent="0" />
        <mxCell id="8dqthjfpuNzesRKPygYF-1" value="" style="edgeStyle=none;curved=1;rounded=0;orthogonalLoop=1;jettySize=auto;html=1;fontSize=12;startSize=8;endSize=8;" parent="1" source="8dqthjfpuNzesRKPygYF-2" target="8dqthjfpuNzesRKPygYF-4" edge="1">
          <mxGeometry relative="1" as="geometry" />
        </mxCell>
        <mxCell id="8dqthjfpuNzesRKPygYF-2" value="Update_data" style="rounded=0;whiteSpace=wrap;html=1;" parent="1" vertex="1">
          <mxGeometry x="339" y="120" width="121" height="40" as="geometry" />
        </mxCell>
        <mxCell id="8dqthjfpuNzesRKPygYF-3" value="" style="edgeStyle=none;curved=1;rounded=0;orthogonalLoop=1;jettySize=auto;html=1;fontSize=12;startSize=8;endSize=8;" parent="1" source="8dqthjfpuNzesRKPygYF-4" target="8dqthjfpuNzesRKPygYF-6" edge="1">
          <mxGeometry relative="1" as="geometry" />
        </mxCell>
        <mxCell id="8dqthjfpuNzesRKPygYF-4" value="nama_lama" style="shape=parallelogram;perimeter=parallelogramPerimeter;whiteSpace=wrap;html=1;fixedSize=1;rounded=0;" parent="1" vertex="1">
          <mxGeometry x="339" y="200" width="120" height="60" as="geometry" />
        </mxCell>
        <mxCell id="nzEh5SoJPyi5W-QRpYRG-3" value="" style="edgeStyle=orthogonalEdgeStyle;rounded=0;orthogonalLoop=1;jettySize=auto;html=1;" parent="1" source="8dqthjfpuNzesRKPygYF-6" target="nzEh5SoJPyi5W-QRpYRG-2" edge="1">
          <mxGeometry relative="1" as="geometry">
            <Array as="points">
              <mxPoint x="600" y="379" />
            </Array>
          </mxGeometry>
        </mxCell>
        <mxCell id="_EYXMJ58tshgOblwJpf8-1" value="yes" style="edgeLabel;html=1;align=center;verticalAlign=middle;resizable=0;points=[];" parent="nzEh5SoJPyi5W-QRpYRG-3" vertex="1" connectable="0">
          <mxGeometry x="-0.4012" y="2" relative="1" as="geometry">
            <mxPoint y="1" as="offset" />
          </mxGeometry>
        </mxCell>
        <mxCell id="_EYXMJ58tshgOblwJpf8-2" style="edgeStyle=orthogonalEdgeStyle;rounded=0;orthogonalLoop=1;jettySize=auto;html=1;exitX=0;exitY=0.5;exitDx=0;exitDy=0;entryX=0.5;entryY=0;entryDx=0;entryDy=0;" parent="1" source="8dqthjfpuNzesRKPygYF-6" target="8dqthjfpuNzesRKPygYF-8" edge="1">
          <mxGeometry relative="1" as="geometry" />
        </mxCell>
        <mxCell id="_EYXMJ58tshgOblwJpf8-3" value="yes" style="edgeLabel;html=1;align=center;verticalAlign=middle;resizable=0;points=[];" parent="_EYXMJ58tshgOblwJpf8-2" vertex="1" connectable="0">
          <mxGeometry x="-0.3589" y="1" relative="1" as="geometry">
            <mxPoint as="offset" />
          </mxGeometry>
        </mxCell>
        <mxCell id="8dqthjfpuNzesRKPygYF-6" value="not search(nama_lama" style="rhombus;whiteSpace=wrap;html=1;rounded=0;" parent="1" vertex="1">
          <mxGeometry x="325.5" y="317" width="144.5" height="123" as="geometry" />
        </mxCell>
        <mxCell id="8dqthjfpuNzesRKPygYF-7" value="" style="edgeStyle=none;curved=1;rounded=0;orthogonalLoop=1;jettySize=auto;html=1;fontSize=12;startSize=8;endSize=8;" parent="1" source="8dqthjfpuNzesRKPygYF-8" target="8dqthjfpuNzesRKPygYF-11" edge="1">
          <mxGeometry relative="1" as="geometry" />
        </mxCell>
        <mxCell id="8dqthjfpuNzesRKPygYF-8" value="nama_baru" style="shape=parallelogram;perimeter=parallelogramPerimeter;whiteSpace=wrap;html=1;fixedSize=1;rounded=0;" parent="1" vertex="1">
          <mxGeometry x="139" y="440" width="120" height="60" as="geometry" />
        </mxCell>
        <mxCell id="8dqthjfpuNzesRKPygYF-10" value="" style="edgeStyle=none;curved=1;rounded=0;orthogonalLoop=1;jettySize=auto;html=1;fontSize=12;startSize=8;endSize=8;" parent="1" source="8dqthjfpuNzesRKPygYF-11" target="8dqthjfpuNzesRKPygYF-13" edge="1">
          <mxGeometry relative="1" as="geometry" />
        </mxCell>
        <mxCell id="8dqthjfpuNzesRKPygYF-11" value="umur_baru" style="shape=parallelogram;perimeter=parallelogramPerimeter;whiteSpace=wrap;html=1;fixedSize=1;rounded=0;" parent="1" vertex="1">
          <mxGeometry x="139.5" y="560" width="120" height="60" as="geometry" />
        </mxCell>
        <mxCell id="8dqthjfpuNzesRKPygYF-12" value="" style="edgeStyle=none;curved=1;rounded=0;orthogonalLoop=1;jettySize=auto;html=1;fontSize=12;startSize=8;endSize=8;" parent="1" source="8dqthjfpuNzesRKPygYF-13" target="8dqthjfpuNzesRKPygYF-18" edge="1">
          <mxGeometry relative="1" as="geometry" />
        </mxCell>
        <mxCell id="8dqthjfpuNzesRKPygYF-13" value="gender_baru" style="shape=parallelogram;perimeter=parallelogramPerimeter;whiteSpace=wrap;html=1;fixedSize=1;rounded=0;" parent="1" vertex="1">
          <mxGeometry x="140" y="680" width="120" height="60" as="geometry" />
        </mxCell>
        <mxCell id="8dqthjfpuNzesRKPygYF-14" value="" style="endArrow=classic;html=1;rounded=0;fontSize=12;startSize=8;endSize=8;curved=1;entryX=0;entryY=0;entryDx=0;entryDy=0;" parent="1" target="8dqthjfpuNzesRKPygYF-4" edge="1">
          <mxGeometry width="50" height="50" relative="1" as="geometry">
            <mxPoint x="310" y="209" as="sourcePoint" />
            <mxPoint x="490" y="390" as="targetPoint" />
          </mxGeometry>
        </mxCell>
        <mxCell id="8dqthjfpuNzesRKPygYF-15" value="" style="endArrow=classic;html=1;rounded=0;fontSize=12;startSize=8;endSize=8;curved=1;entryX=0;entryY=0;entryDx=0;entryDy=0;" parent="1" target="8dqthjfpuNzesRKPygYF-8" edge="1">
          <mxGeometry width="50" height="50" relative="1" as="geometry">
            <mxPoint x="100" y="449" as="sourcePoint" />
            <mxPoint x="161" y="139" as="targetPoint" />
          </mxGeometry>
        </mxCell>
        <mxCell id="8dqthjfpuNzesRKPygYF-16" value="" style="endArrow=classic;html=1;rounded=0;fontSize=12;startSize=8;endSize=8;curved=1;entryX=0;entryY=0;entryDx=0;entryDy=0;" parent="1" target="8dqthjfpuNzesRKPygYF-11" edge="1">
          <mxGeometry width="50" height="50" relative="1" as="geometry">
            <mxPoint x="100" y="569" as="sourcePoint" />
            <mxPoint x="290" y="650" as="targetPoint" />
          </mxGeometry>
        </mxCell>
        <mxCell id="8dqthjfpuNzesRKPygYF-17" value="" style="endArrow=classic;html=1;rounded=0;fontSize=12;startSize=8;endSize=8;curved=1;entryX=0;entryY=0;entryDx=0;entryDy=0;" parent="1" target="8dqthjfpuNzesRKPygYF-13" edge="1">
          <mxGeometry width="50" height="50" relative="1" as="geometry">
            <mxPoint x="100" y="689" as="sourcePoint" />
            <mxPoint x="147" y="708" as="targetPoint" />
          </mxGeometry>
        </mxCell>
        <mxCell id="3CoituzRUQ6k6TO3RErX-1" style="edgeStyle=orthogonalEdgeStyle;rounded=0;orthogonalLoop=1;jettySize=auto;html=1;exitX=0.5;exitY=1;exitDx=0;exitDy=0;entryX=0;entryY=0.25;entryDx=0;entryDy=0;" parent="1" source="8dqthjfpuNzesRKPygYF-18" target="g3VUNEKgMXBE2VRqIjNN-1" edge="1">
          <mxGeometry relative="1" as="geometry">
            <Array as="points">
              <mxPoint x="270" y="980" />
              <mxPoint x="270" y="935" />
            </Array>
          </mxGeometry>
        </mxCell>
        <mxCell id="8dqthjfpuNzesRKPygYF-18" value="nama_lama = nama_baru&lt;div&gt;&#39;umur&#39; = umur_baru&lt;/div&gt;&lt;div&gt;&#39;gender&#39; = gender_baru&lt;/div&gt;&lt;div&gt;&#39;mbti&#39; = mbti_baru&lt;/div&gt;" style="whiteSpace=wrap;html=1;rounded=0;" parent="1" vertex="1">
          <mxGeometry x="123" y="890" width="147" height="90" as="geometry" />
        </mxCell>
        <mxCell id="3eUuCLp_r1qzVKGeNxlz-1" style="edgeStyle=orthogonalEdgeStyle;rounded=0;orthogonalLoop=1;jettySize=auto;html=1;exitX=0.5;exitY=1;exitDx=0;exitDy=0;exitPerimeter=0;entryX=0.5;entryY=0;entryDx=0;entryDy=0;" parent="1" target="8dqthjfpuNzesRKPygYF-2" edge="1">
          <mxGeometry relative="1" as="geometry">
            <mxPoint x="399" y="80" as="sourcePoint" />
          </mxGeometry>
        </mxCell>
        <UserObject label="4" link="data:page/id,0SJwvxfQRwlbceAc_MAZ" id="g3VUNEKgMXBE2VRqIjNN-1">
          <mxCell style="verticalLabelPosition=bottom;verticalAlign=top;html=1;shape=offPageConnector;rounded=0;size=0.5;" parent="1" vertex="1">
            <mxGeometry x="367.75" y="920" width="60" height="60" as="geometry" />
          </mxCell>
        </UserObject>
        <mxCell id="fbxe7_FVtnRiYO7aU62y-1" value="7" style="verticalLabelPosition=bottom;verticalAlign=top;html=1;shape=offPageConnector;rounded=0;size=0.5;" parent="1" vertex="1">
          <mxGeometry x="369" y="20" width="60" height="60" as="geometry" />
        </mxCell>
        <mxCell id="3CoituzRUQ6k6TO3RErX-2" style="edgeStyle=orthogonalEdgeStyle;rounded=0;orthogonalLoop=1;jettySize=auto;html=1;exitX=0.426;exitY=1.016;exitDx=0;exitDy=0;entryX=1;entryY=0.25;entryDx=0;entryDy=0;exitPerimeter=0;" parent="1" source="nzEh5SoJPyi5W-QRpYRG-2" target="g3VUNEKgMXBE2VRqIjNN-1" edge="1">
          <mxGeometry relative="1" as="geometry">
            <Array as="points">
              <mxPoint x="600" y="935" />
            </Array>
          </mxGeometry>
        </mxCell>
        <mxCell id="xLvtDvVPY-bq7JPVOPjg-1" style="edgeStyle=orthogonalEdgeStyle;rounded=0;orthogonalLoop=1;jettySize=auto;html=1;exitX=1;exitY=1;exitDx=0;exitDy=0;" parent="1" source="nzEh5SoJPyi5W-QRpYRG-2" edge="1">
          <mxGeometry relative="1" as="geometry">
            <mxPoint x="700" y="509.7777777777778" as="targetPoint" />
          </mxGeometry>
        </mxCell>
        <mxCell id="nzEh5SoJPyi5W-QRpYRG-2" value="Karakter {nama_lama} tidak ditemukan, coba lagi" style="shape=parallelogram;perimeter=parallelogramPerimeter;whiteSpace=wrap;html=1;fixedSize=1;rounded=0;" parent="1" vertex="1">
          <mxGeometry x="540" y="440" width="140" height="80" as="geometry" />
        </mxCell>
        <mxCell id="7vbjuYmYccLvbsji1e2t-1" value="mbti_baru" style="shape=parallelogram;perimeter=parallelogramPerimeter;whiteSpace=wrap;html=1;fixedSize=1;" parent="1" vertex="1">
          <mxGeometry x="139" y="778" width="120" height="60" as="geometry" />
        </mxCell>
        <mxCell id="7vbjuYmYccLvbsji1e2t-2" value="" style="endArrow=classic;html=1;rounded=0;fontSize=12;startSize=8;endSize=8;curved=1;exitX=0.5;exitY=1;exitDx=0;exitDy=0;" parent="1" source="8dqthjfpuNzesRKPygYF-13" target="7vbjuYmYccLvbsji1e2t-1" edge="1">
          <mxGeometry width="50" height="50" relative="1" as="geometry">
            <mxPoint x="-4" y="790" as="sourcePoint" />
            <mxPoint x="46" y="740" as="targetPoint" />
          </mxGeometry>
        </mxCell>
        <mxCell id="7vbjuYmYccLvbsji1e2t-3" value="" style="endArrow=classic;html=1;rounded=0;fontSize=12;startSize=8;endSize=8;curved=1;entryX=0;entryY=0;entryDx=0;entryDy=0;" parent="1" target="7vbjuYmYccLvbsji1e2t-1" edge="1">
          <mxGeometry width="50" height="50" relative="1" as="geometry">
            <mxPoint x="98" y="787" as="sourcePoint" />
            <mxPoint x="149" y="645" as="targetPoint" />
          </mxGeometry>
        </mxCell>
      </root>
    </mxGraphModel>
  </diagram>
  <diagram id="-TYRjAAz3L_bjJJ2mlKB" name="Hapus Karakter">
    <mxGraphModel dx="1263" dy="711" grid="0" gridSize="10" guides="1" tooltips="1" connect="1" arrows="1" fold="1" page="1" pageScale="1" pageWidth="850" pageHeight="1100" math="0" shadow="0">
      <root>
        <mxCell id="0" />
        <mxCell id="1" parent="0" />
        <mxCell id="aZs_9W0ywr91lHRakrR_-1" value="" style="edgeStyle=none;curved=1;rounded=0;orthogonalLoop=1;jettySize=auto;html=1;fontSize=12;startSize=8;endSize=8;" parent="1" source="aZs_9W0ywr91lHRakrR_-2" target="aZs_9W0ywr91lHRakrR_-4" edge="1">
          <mxGeometry relative="1" as="geometry" />
        </mxCell>
        <mxCell id="aZs_9W0ywr91lHRakrR_-2" value="delete_data&amp;nbsp;" style="rounded=0;whiteSpace=wrap;html=1;" parent="1" vertex="1">
          <mxGeometry x="380" y="260" width="120" height="60" as="geometry" />
        </mxCell>
        <mxCell id="aZs_9W0ywr91lHRakrR_-4" value="nama_lama" style="shape=parallelogram;perimeter=parallelogramPerimeter;whiteSpace=wrap;html=1;fixedSize=1;rounded=0;" parent="1" vertex="1">
          <mxGeometry x="380" y="380" width="120" height="60" as="geometry" />
        </mxCell>
        <mxCell id="aZs_9W0ywr91lHRakrR_-5" value="" style="endArrow=classic;html=1;rounded=0;fontSize=12;startSize=8;endSize=8;curved=1;entryX=0;entryY=0;entryDx=0;entryDy=0;" parent="1" target="aZs_9W0ywr91lHRakrR_-4" edge="1">
          <mxGeometry width="50" height="50" relative="1" as="geometry">
            <mxPoint x="350" y="389" as="sourcePoint" />
            <mxPoint x="460" y="580" as="targetPoint" />
          </mxGeometry>
        </mxCell>
        <mxCell id="P5obDvmLbVIf7RNFvqmv-5" style="edgeStyle=orthogonalEdgeStyle;rounded=0;orthogonalLoop=1;jettySize=auto;html=1;entryX=0;entryY=0.25;entryDx=0;entryDy=0;exitX=0.5;exitY=1;exitDx=0;exitDy=0;" parent="1" source="aZs_9W0ywr91lHRakrR_-6" target="vm3rVl4CtCl7o6l2bdSq-3" edge="1">
          <mxGeometry relative="1" as="geometry" />
        </mxCell>
        <mxCell id="aZs_9W0ywr91lHRakrR_-6" value="del karakter_info&amp;nbsp;&lt;div&gt;[nama_lama]&lt;/div&gt;" style="whiteSpace=wrap;html=1;rounded=0;" parent="1" vertex="1">
          <mxGeometry x="180" y="600" width="120" height="70" as="geometry" />
        </mxCell>
        <mxCell id="bnfOAGyE5DDdoahNprcE-2" style="edgeStyle=orthogonalEdgeStyle;rounded=0;orthogonalLoop=1;jettySize=auto;html=1;entryX=0.5;entryY=0;entryDx=0;entryDy=0;" parent="1" target="aZs_9W0ywr91lHRakrR_-2" edge="1">
          <mxGeometry relative="1" as="geometry">
            <mxPoint x="440" y="200" as="sourcePoint" />
          </mxGeometry>
        </mxCell>
        <mxCell id="VSfWVQgmPydq8ytSHsa_-1" value="" style="edgeStyle=none;curved=1;rounded=0;orthogonalLoop=1;jettySize=auto;html=1;fontSize=12;startSize=8;endSize=8;" parent="1" source="aZs_9W0ywr91lHRakrR_-4" target="aqrljVKP8EqoZzTtFoRP-4" edge="1">
          <mxGeometry relative="1" as="geometry">
            <mxPoint x="441" y="440" as="sourcePoint" />
            <mxPoint x="449" y="650" as="targetPoint" />
          </mxGeometry>
        </mxCell>
        <mxCell id="P5obDvmLbVIf7RNFvqmv-3" style="edgeStyle=orthogonalEdgeStyle;rounded=0;orthogonalLoop=1;jettySize=auto;html=1;exitX=1;exitY=0.5;exitDx=0;exitDy=0;exitPerimeter=0;entryX=0.5;entryY=0;entryDx=0;entryDy=0;" parent="1" edge="1">
          <mxGeometry relative="1" as="geometry">
            <mxPoint x="512.5" y="540" as="sourcePoint" />
            <mxPoint x="640" y="600" as="targetPoint" />
          </mxGeometry>
        </mxCell>
        <mxCell id="kdLa5ACecp0ympGAh8VA-2" value="yes" style="edgeLabel;html=1;align=center;verticalAlign=middle;resizable=0;points=[];" parent="P5obDvmLbVIf7RNFvqmv-3" vertex="1" connectable="0">
          <mxGeometry x="-0.3645" y="-5" relative="1" as="geometry">
            <mxPoint as="offset" />
          </mxGeometry>
        </mxCell>
        <mxCell id="P5obDvmLbVIf7RNFvqmv-4" style="edgeStyle=orthogonalEdgeStyle;rounded=0;orthogonalLoop=1;jettySize=auto;html=1;exitX=0;exitY=0.5;exitDx=0;exitDy=0;exitPerimeter=0;entryX=0.5;entryY=0;entryDx=0;entryDy=0;" parent="1" source="aqrljVKP8EqoZzTtFoRP-4" target="aZs_9W0ywr91lHRakrR_-6" edge="1">
          <mxGeometry relative="1" as="geometry" />
        </mxCell>
        <mxCell id="kdLa5ACecp0ympGAh8VA-3" value="no" style="edgeLabel;html=1;align=center;verticalAlign=middle;resizable=0;points=[];" parent="P5obDvmLbVIf7RNFvqmv-4" vertex="1" connectable="0">
          <mxGeometry x="-0.3436" y="4" relative="1" as="geometry">
            <mxPoint as="offset" />
          </mxGeometry>
        </mxCell>
        <mxCell id="aqrljVKP8EqoZzTtFoRP-4" value="not search(nama_lama)" style="strokeWidth=2;html=1;shape=mxgraph.flowchart.decision;whiteSpace=wrap;" parent="1" vertex="1">
          <mxGeometry x="362.5" y="480" width="155" height="120" as="geometry" />
        </mxCell>
        <UserObject label="4" link="data:page/id,0SJwvxfQRwlbceAc_MAZ" id="vm3rVl4CtCl7o6l2bdSq-3">
          <mxCell style="verticalLabelPosition=bottom;verticalAlign=top;html=1;shape=offPageConnector;rounded=0;size=0.5;" parent="1" vertex="1">
            <mxGeometry x="410" y="760" width="60" height="60" as="geometry" />
          </mxCell>
        </UserObject>
        <mxCell id="-1p8LzUb-CnELkxfIJP9-1" value="8" style="verticalLabelPosition=bottom;verticalAlign=top;html=1;shape=offPageConnector;rounded=0;size=0.5;" parent="1" vertex="1">
          <mxGeometry x="410" y="140" width="60" height="60" as="geometry" />
        </mxCell>
        <mxCell id="P5obDvmLbVIf7RNFvqmv-6" style="edgeStyle=orthogonalEdgeStyle;rounded=0;orthogonalLoop=1;jettySize=auto;html=1;exitX=0.5;exitY=1;exitDx=0;exitDy=0;entryX=1;entryY=0.25;entryDx=0;entryDy=0;" parent="1" source="o-SSG-ReH_VRl_R2PSed-1" target="vm3rVl4CtCl7o6l2bdSq-3" edge="1">
          <mxGeometry relative="1" as="geometry" />
        </mxCell>
        <mxCell id="kdLa5ACecp0ympGAh8VA-1" style="edgeStyle=orthogonalEdgeStyle;rounded=0;orthogonalLoop=1;jettySize=auto;html=1;exitX=1;exitY=1;exitDx=0;exitDy=0;" parent="1" source="o-SSG-ReH_VRl_R2PSed-1" edge="1">
          <mxGeometry relative="1" as="geometry">
            <mxPoint x="740" y="670.7647058823529" as="targetPoint" />
          </mxGeometry>
        </mxCell>
        <mxCell id="o-SSG-ReH_VRl_R2PSed-1" value="Karakter {nama_lama} tidak ditemukan, coba lagi." style="shape=parallelogram;perimeter=parallelogramPerimeter;whiteSpace=wrap;html=1;fixedSize=1;strokeWidth=2;" parent="1" vertex="1">
          <mxGeometry x="570" y="600" width="150" height="80" as="geometry" />
        </mxCell>
      </root>
    </mxGraphModel>
  </diagram>
  <diagram id="k2bEwBJRmWPJOc3vEHKX" name="Cek Interaksi">
    <mxGraphModel dx="2412" dy="1324" grid="0" gridSize="10" guides="1" tooltips="1" connect="1" arrows="1" fold="1" page="0" pageScale="1" pageWidth="850" pageHeight="1100" math="0" shadow="0">
      <root>
        <mxCell id="0" />
        <mxCell id="1" parent="0" />
        <mxCell id="FyhEJ8f1gNvOynnMQ9Un-1" value="" style="edgeStyle=orthogonalEdgeStyle;rounded=0;orthogonalLoop=1;jettySize=auto;html=1;" parent="1" source="FyhEJ8f1gNvOynnMQ9Un-2" target="FyhEJ8f1gNvOynnMQ9Un-4" edge="1">
          <mxGeometry relative="1" as="geometry" />
        </mxCell>
        <mxCell id="FyhEJ8f1gNvOynnMQ9Un-2" value="Cek Interaksi" style="rounded=0;whiteSpace=wrap;html=1;" parent="1" vertex="1">
          <mxGeometry x="365" y="60" width="120" height="60" as="geometry" />
        </mxCell>
        <mxCell id="FyhEJ8f1gNvOynnMQ9Un-3" value="" style="edgeStyle=orthogonalEdgeStyle;rounded=0;orthogonalLoop=1;jettySize=auto;html=1;" parent="1" source="FyhEJ8f1gNvOynnMQ9Un-4" target="FyhEJ8f1gNvOynnMQ9Un-5" edge="1">
          <mxGeometry relative="1" as="geometry" />
        </mxCell>
        <mxCell id="FyhEJ8f1gNvOynnMQ9Un-4" value="input pro_mbti" style="shape=parallelogram;perimeter=parallelogramPerimeter;whiteSpace=wrap;html=1;fixedSize=1;" parent="1" vertex="1">
          <mxGeometry x="365" y="160" width="120" height="60" as="geometry" />
        </mxCell>
        <mxCell id="FyhEJ8f1gNvOynnMQ9Un-5" value="input con_mbti" style="shape=parallelogram;perimeter=parallelogramPerimeter;whiteSpace=wrap;html=1;fixedSize=1;" parent="1" vertex="1">
          <mxGeometry x="365" y="260" width="120" height="60" as="geometry" />
        </mxCell>
        <mxCell id="FyhEJ8f1gNvOynnMQ9Un-6" value="pro_mbti and con_mbti" style="rhombus;whiteSpace=wrap;html=1;" parent="1" vertex="1">
          <mxGeometry x="350" y="350" width="160" height="80" as="geometry" />
        </mxCell>
        <mxCell id="FyhEJ8f1gNvOynnMQ9Un-7" value="INFP and Other" style="rounded=0;whiteSpace=wrap;html=1;" parent="1" vertex="1">
          <mxGeometry x="30" y="460" width="120" height="60" as="geometry" />
        </mxCell>
        <mxCell id="FyhEJ8f1gNvOynnMQ9Un-8" value="ENFP and Other" style="rounded=0;whiteSpace=wrap;html=1;" parent="1" vertex="1">
          <mxGeometry x="260" y="460" width="120" height="60" as="geometry" />
        </mxCell>
        <mxCell id="FyhEJ8f1gNvOynnMQ9Un-9" value="INFJ and Other" style="rounded=0;whiteSpace=wrap;html=1;" parent="1" vertex="1">
          <mxGeometry x="485" y="460" width="120" height="60" as="geometry" />
        </mxCell>
        <mxCell id="FyhEJ8f1gNvOynnMQ9Un-10" value="ENFJ and Other" style="rounded=0;whiteSpace=wrap;html=1;" parent="1" vertex="1">
          <mxGeometry x="700" y="460" width="120" height="60" as="geometry" />
        </mxCell>
        <mxCell id="FyhEJ8f1gNvOynnMQ9Un-11" value="INTP and Other" style="rounded=0;whiteSpace=wrap;html=1;" parent="1" vertex="1">
          <mxGeometry x="30" y="600" width="120" height="60" as="geometry" />
        </mxCell>
        <mxCell id="FyhEJ8f1gNvOynnMQ9Un-12" value="ENTP and Other" style="rounded=0;whiteSpace=wrap;html=1;" parent="1" vertex="1">
          <mxGeometry x="260" y="600" width="120" height="60" as="geometry" />
        </mxCell>
        <mxCell id="FyhEJ8f1gNvOynnMQ9Un-13" value="INTJ and Other" style="rounded=0;whiteSpace=wrap;html=1;" parent="1" vertex="1">
          <mxGeometry x="485" y="600" width="120" height="60" as="geometry" />
        </mxCell>
        <mxCell id="FyhEJ8f1gNvOynnMQ9Un-14" value="ENTJ and Other" style="rounded=0;whiteSpace=wrap;html=1;" parent="1" vertex="1">
          <mxGeometry x="700" y="600" width="120" height="60" as="geometry" />
        </mxCell>
        <mxCell id="FyhEJ8f1gNvOynnMQ9Un-15" value="ISFP and Other" style="rounded=0;whiteSpace=wrap;html=1;" parent="1" vertex="1">
          <mxGeometry x="30" y="740" width="120" height="60" as="geometry" />
        </mxCell>
        <mxCell id="FyhEJ8f1gNvOynnMQ9Un-16" value="ESFP and Other" style="rounded=0;whiteSpace=wrap;html=1;" parent="1" vertex="1">
          <mxGeometry x="260" y="740" width="120" height="60" as="geometry" />
        </mxCell>
        <mxCell id="FyhEJ8f1gNvOynnMQ9Un-17" value="ISFJ and Other" style="rounded=0;whiteSpace=wrap;html=1;" parent="1" vertex="1">
          <mxGeometry x="485" y="740" width="120" height="60" as="geometry" />
        </mxCell>
        <mxCell id="FyhEJ8f1gNvOynnMQ9Un-18" value="ESFJ and Other" style="rounded=0;whiteSpace=wrap;html=1;" parent="1" vertex="1">
          <mxGeometry x="700" y="740" width="120" height="60" as="geometry" />
        </mxCell>
        <mxCell id="FyhEJ8f1gNvOynnMQ9Un-19" value="ISTP and Other" style="rounded=0;whiteSpace=wrap;html=1;" parent="1" vertex="1">
          <mxGeometry x="30" y="880" width="120" height="60" as="geometry" />
        </mxCell>
        <mxCell id="FyhEJ8f1gNvOynnMQ9Un-20" value="ESTP and Other" style="rounded=0;whiteSpace=wrap;html=1;" parent="1" vertex="1">
          <mxGeometry x="260" y="880" width="120" height="60" as="geometry" />
        </mxCell>
        <mxCell id="FyhEJ8f1gNvOynnMQ9Un-21" value="ISTJ and Other" style="rounded=0;whiteSpace=wrap;html=1;" parent="1" vertex="1">
          <mxGeometry x="485" y="880" width="120" height="60" as="geometry" />
        </mxCell>
        <mxCell id="FyhEJ8f1gNvOynnMQ9Un-22" value="ESTJ and Other" style="rounded=0;whiteSpace=wrap;html=1;" parent="1" vertex="1">
          <mxGeometry x="700" y="880" width="120" height="60" as="geometry" />
        </mxCell>
        <mxCell id="FyhEJ8f1gNvOynnMQ9Un-23" value="" style="endArrow=classic;html=1;rounded=0;entryX=0.5;entryY=0;entryDx=0;entryDy=0;" parent="1" target="FyhEJ8f1gNvOynnMQ9Un-11" edge="1">
          <mxGeometry width="50" height="50" relative="1" as="geometry">
            <mxPoint x="350" y="390" as="sourcePoint" />
            <mxPoint x="600" y="480" as="targetPoint" />
            <Array as="points">
              <mxPoint x="160" y="390" />
              <mxPoint x="160" y="560" />
              <mxPoint x="90" y="560" />
            </Array>
          </mxGeometry>
        </mxCell>
        <mxCell id="FyhEJ8f1gNvOynnMQ9Un-24" value="" style="endArrow=classic;html=1;rounded=0;exitX=0.043;exitY=0.551;exitDx=0;exitDy=0;exitPerimeter=0;" parent="1" source="FyhEJ8f1gNvOynnMQ9Un-6" edge="1">
          <mxGeometry width="50" height="50" relative="1" as="geometry">
            <mxPoint x="360" y="410" as="sourcePoint" />
            <mxPoint x="90" y="740" as="targetPoint" />
            <Array as="points">
              <mxPoint x="260" y="394" />
              <mxPoint x="170" y="394" />
              <mxPoint x="170" y="580" />
              <mxPoint x="170" y="710" />
              <mxPoint x="90" y="710" />
            </Array>
          </mxGeometry>
        </mxCell>
        <mxCell id="FyhEJ8f1gNvOynnMQ9Un-25" value="" style="endArrow=classic;html=1;rounded=0;entryX=0.407;entryY=0.032;entryDx=0;entryDy=0;entryPerimeter=0;exitX=0.097;exitY=0.617;exitDx=0;exitDy=0;exitPerimeter=0;" parent="1" source="FyhEJ8f1gNvOynnMQ9Un-6" edge="1">
          <mxGeometry width="50" height="50" relative="1" as="geometry">
            <mxPoint x="365" y="397.28" as="sourcePoint" />
            <mxPoint x="95.07999999999997" y="880" as="targetPoint" />
            <Array as="points">
              <mxPoint x="181.24" y="400" />
              <mxPoint x="181.24" y="588" />
              <mxPoint x="181.24" y="840" />
              <mxPoint x="95.24" y="840" />
            </Array>
          </mxGeometry>
        </mxCell>
        <mxCell id="FyhEJ8f1gNvOynnMQ9Un-26" value="" style="endArrow=classic;html=1;rounded=0;entryX=0.433;entryY=-0.022;entryDx=0;entryDy=0;entryPerimeter=0;exitX=0.14;exitY=0.365;exitDx=0;exitDy=0;exitPerimeter=0;" parent="1" source="FyhEJ8f1gNvOynnMQ9Un-6" target="FyhEJ8f1gNvOynnMQ9Un-7" edge="1">
          <mxGeometry width="50" height="50" relative="1" as="geometry">
            <mxPoint x="290" y="410" as="sourcePoint" />
            <mxPoint x="340" y="360" as="targetPoint" />
            <Array as="points">
              <mxPoint x="82" y="380" />
            </Array>
          </mxGeometry>
        </mxCell>
        <mxCell id="FyhEJ8f1gNvOynnMQ9Un-27" value="" style="endArrow=classic;html=1;rounded=0;exitX=0.233;exitY=0.733;exitDx=0;exitDy=0;exitPerimeter=0;entryX=0.5;entryY=0;entryDx=0;entryDy=0;" parent="1" source="FyhEJ8f1gNvOynnMQ9Un-6" target="FyhEJ8f1gNvOynnMQ9Un-8" edge="1">
          <mxGeometry width="50" height="50" relative="1" as="geometry">
            <mxPoint x="480" y="440" as="sourcePoint" />
            <mxPoint x="530" y="390" as="targetPoint" />
            <Array as="points">
              <mxPoint x="320" y="410" />
              <mxPoint x="320" y="430" />
            </Array>
          </mxGeometry>
        </mxCell>
        <mxCell id="FyhEJ8f1gNvOynnMQ9Un-28" value="" style="endArrow=classic;html=1;rounded=0;entryX=0.5;entryY=0;entryDx=0;entryDy=0;exitX=0;exitY=1;exitDx=0;exitDy=0;" parent="1" source="FyhEJ8f1gNvOynnMQ9Un-6" edge="1">
          <mxGeometry width="50" height="50" relative="1" as="geometry">
            <mxPoint x="580" y="390" as="sourcePoint" />
            <mxPoint x="320" y="600" as="targetPoint" />
            <Array as="points">
              <mxPoint x="390" y="470" />
              <mxPoint x="390" y="560" />
              <mxPoint x="320" y="560" />
            </Array>
          </mxGeometry>
        </mxCell>
        <mxCell id="FyhEJ8f1gNvOynnMQ9Un-29" value="" style="endArrow=classic;html=1;rounded=0;entryX=0.5;entryY=0;entryDx=0;entryDy=0;exitX=0.31;exitY=0.809;exitDx=0;exitDy=0;exitPerimeter=0;" parent="1" source="FyhEJ8f1gNvOynnMQ9Un-6" target="FyhEJ8f1gNvOynnMQ9Un-16" edge="1">
          <mxGeometry width="50" height="50" relative="1" as="geometry">
            <mxPoint x="400" y="420" as="sourcePoint" />
            <mxPoint x="330" y="610" as="targetPoint" />
            <Array as="points">
              <mxPoint x="400" y="480" />
              <mxPoint x="400" y="570" />
              <mxPoint x="400" y="710" />
              <mxPoint x="320" y="710" />
            </Array>
          </mxGeometry>
        </mxCell>
        <mxCell id="FyhEJ8f1gNvOynnMQ9Un-30" value="" style="endArrow=classic;html=1;rounded=0;entryX=0.5;entryY=0;entryDx=0;entryDy=0;exitX=0.37;exitY=0.86;exitDx=0;exitDy=0;exitPerimeter=0;" parent="1" source="FyhEJ8f1gNvOynnMQ9Un-6" target="FyhEJ8f1gNvOynnMQ9Un-20" edge="1">
          <mxGeometry width="50" height="50" relative="1" as="geometry">
            <mxPoint x="410" y="425" as="sourcePoint" />
            <mxPoint x="330" y="750" as="targetPoint" />
            <Array as="points">
              <mxPoint x="410" y="490" />
              <mxPoint x="410" y="580" />
              <mxPoint x="410" y="720" />
              <mxPoint x="410" y="840" />
              <mxPoint x="320" y="840" />
            </Array>
          </mxGeometry>
        </mxCell>
        <mxCell id="FyhEJ8f1gNvOynnMQ9Un-31" value="" style="endArrow=classic;html=1;rounded=0;entryX=0.5;entryY=0;entryDx=0;entryDy=0;exitX=0.796;exitY=0.703;exitDx=0;exitDy=0;exitPerimeter=0;" parent="1" source="FyhEJ8f1gNvOynnMQ9Un-6" target="FyhEJ8f1gNvOynnMQ9Un-9" edge="1">
          <mxGeometry width="50" height="50" relative="1" as="geometry">
            <mxPoint x="480" y="406" as="sourcePoint" />
            <mxPoint x="610" y="510" as="targetPoint" />
            <Array as="points">
              <mxPoint x="545" y="406" />
            </Array>
          </mxGeometry>
        </mxCell>
        <mxCell id="FyhEJ8f1gNvOynnMQ9Un-32" value="" style="endArrow=classic;html=1;rounded=0;exitX=1;exitY=1;exitDx=0;exitDy=0;" parent="1" source="FyhEJ8f1gNvOynnMQ9Un-6" edge="1">
          <mxGeometry width="50" height="50" relative="1" as="geometry">
            <mxPoint x="560" y="560" as="sourcePoint" />
            <mxPoint x="545" y="600" as="targetPoint" />
            <Array as="points">
              <mxPoint x="470" y="560" />
              <mxPoint x="545" y="560" />
            </Array>
          </mxGeometry>
        </mxCell>
        <mxCell id="FyhEJ8f1gNvOynnMQ9Un-33" value="" style="endArrow=classic;html=1;rounded=0;exitX=0.697;exitY=0.808;exitDx=0;exitDy=0;exitPerimeter=0;entryX=0.5;entryY=0;entryDx=0;entryDy=0;" parent="1" source="FyhEJ8f1gNvOynnMQ9Un-6" target="FyhEJ8f1gNvOynnMQ9Un-17" edge="1">
          <mxGeometry width="50" height="50" relative="1" as="geometry">
            <mxPoint x="530" y="570" as="sourcePoint" />
            <mxPoint x="580" y="520" as="targetPoint" />
            <Array as="points">
              <mxPoint x="461" y="710" />
              <mxPoint x="545" y="710" />
            </Array>
          </mxGeometry>
        </mxCell>
        <mxCell id="FyhEJ8f1gNvOynnMQ9Un-34" value="" style="endArrow=classic;html=1;rounded=0;entryX=0.459;entryY=-0.035;entryDx=0;entryDy=0;entryPerimeter=0;exitX=0.632;exitY=0.878;exitDx=0;exitDy=0;exitPerimeter=0;" parent="1" source="FyhEJ8f1gNvOynnMQ9Un-6" target="FyhEJ8f1gNvOynnMQ9Un-21" edge="1">
          <mxGeometry width="50" height="50" relative="1" as="geometry">
            <mxPoint x="451" y="540" as="sourcePoint" />
            <mxPoint x="533.96" y="880" as="targetPoint" />
            <Array as="points">
              <mxPoint x="450" y="840" />
              <mxPoint x="540" y="840" />
            </Array>
          </mxGeometry>
        </mxCell>
        <mxCell id="FyhEJ8f1gNvOynnMQ9Un-35" value="" style="endArrow=classic;html=1;rounded=0;entryX=0.5;entryY=0;entryDx=0;entryDy=0;exitX=0.539;exitY=0.991;exitDx=0;exitDy=0;exitPerimeter=0;" parent="1" source="FyhEJ8f1gNvOynnMQ9Un-5" target="FyhEJ8f1gNvOynnMQ9Un-6" edge="1">
          <mxGeometry width="50" height="50" relative="1" as="geometry">
            <mxPoint x="420" y="320" as="sourcePoint" />
            <mxPoint x="530" y="340" as="targetPoint" />
          </mxGeometry>
        </mxCell>
        <mxCell id="FyhEJ8f1gNvOynnMQ9Un-36" value="" style="endArrow=classic;html=1;rounded=0;" parent="1" edge="1">
          <mxGeometry width="50" height="50" relative="1" as="geometry">
            <mxPoint x="340" y="170" as="sourcePoint" />
            <mxPoint x="380" y="170" as="targetPoint" />
            <Array as="points">
              <mxPoint x="360" y="170" />
            </Array>
          </mxGeometry>
        </mxCell>
        <mxCell id="FyhEJ8f1gNvOynnMQ9Un-37" value="" style="endArrow=classic;html=1;rounded=0;" parent="1" edge="1">
          <mxGeometry width="50" height="50" relative="1" as="geometry">
            <mxPoint x="340" y="270" as="sourcePoint" />
            <mxPoint x="380" y="270" as="targetPoint" />
          </mxGeometry>
        </mxCell>
        <mxCell id="FyhEJ8f1gNvOynnMQ9Un-38" value="" style="endArrow=classic;html=1;rounded=0;exitX=0.848;exitY=0.35;exitDx=0;exitDy=0;exitPerimeter=0;entryX=0.5;entryY=0;entryDx=0;entryDy=0;" parent="1" source="FyhEJ8f1gNvOynnMQ9Un-6" target="FyhEJ8f1gNvOynnMQ9Un-10" edge="1">
          <mxGeometry width="50" height="50" relative="1" as="geometry">
            <mxPoint x="610" y="450" as="sourcePoint" />
            <mxPoint x="660" y="400" as="targetPoint" />
            <Array as="points">
              <mxPoint x="760" y="376" />
            </Array>
          </mxGeometry>
        </mxCell>
        <mxCell id="FyhEJ8f1gNvOynnMQ9Un-39" value="" style="endArrow=classic;html=1;rounded=0;exitX=1;exitY=0.5;exitDx=0;exitDy=0;entryX=0.5;entryY=0;entryDx=0;entryDy=0;" parent="1" source="FyhEJ8f1gNvOynnMQ9Un-6" target="FyhEJ8f1gNvOynnMQ9Un-14" edge="1">
          <mxGeometry width="50" height="50" relative="1" as="geometry">
            <mxPoint x="520" y="440" as="sourcePoint" />
            <mxPoint x="570" y="390" as="targetPoint" />
            <Array as="points">
              <mxPoint x="690" y="390" />
              <mxPoint x="690" y="560" />
              <mxPoint x="760" y="560" />
            </Array>
          </mxGeometry>
        </mxCell>
        <mxCell id="FyhEJ8f1gNvOynnMQ9Un-40" value="" style="endArrow=classic;html=1;rounded=0;exitX=0.931;exitY=0.566;exitDx=0;exitDy=0;exitPerimeter=0;entryX=0.5;entryY=0;entryDx=0;entryDy=0;" parent="1" source="FyhEJ8f1gNvOynnMQ9Un-6" target="FyhEJ8f1gNvOynnMQ9Un-18" edge="1">
          <mxGeometry width="50" height="50" relative="1" as="geometry">
            <mxPoint x="510" y="410" as="sourcePoint" />
            <mxPoint x="670" y="590" as="targetPoint" />
            <Array as="points">
              <mxPoint x="680" y="395" />
              <mxPoint x="680" y="710" />
              <mxPoint x="760" y="710" />
            </Array>
          </mxGeometry>
        </mxCell>
        <mxCell id="FyhEJ8f1gNvOynnMQ9Un-41" value="" style="endArrow=classic;html=1;rounded=0;exitX=0.874;exitY=0.62;exitDx=0;exitDy=0;exitPerimeter=0;entryX=0.5;entryY=0;entryDx=0;entryDy=0;" parent="1" source="FyhEJ8f1gNvOynnMQ9Un-6" target="FyhEJ8f1gNvOynnMQ9Un-22" edge="1">
          <mxGeometry width="50" height="50" relative="1" as="geometry">
            <mxPoint x="500" y="430" as="sourcePoint" />
            <mxPoint x="660" y="740" as="targetPoint" />
            <Array as="points">
              <mxPoint x="670" y="400" />
              <mxPoint x="670" y="840" />
              <mxPoint x="760" y="840" />
            </Array>
          </mxGeometry>
        </mxCell>
        <mxCell id="KgNS2mUuCveM4cSc5f_L-4" style="edgeStyle=orthogonalEdgeStyle;rounded=0;orthogonalLoop=1;jettySize=auto;html=1;exitX=0.5;exitY=1;exitDx=0;exitDy=0;" parent="1" source="FyhEJ8f1gNvOynnMQ9Un-42" target="KgNS2mUuCveM4cSc5f_L-3" edge="1">
          <mxGeometry relative="1" as="geometry" />
        </mxCell>
        <mxCell id="FyhEJ8f1gNvOynnMQ9Un-42" value="Hasil Interaksi" style="shape=parallelogram;perimeter=parallelogramPerimeter;whiteSpace=wrap;html=1;fixedSize=1;" parent="1" vertex="1">
          <mxGeometry x="370" y="990" width="120" height="60" as="geometry" />
        </mxCell>
        <mxCell id="FyhEJ8f1gNvOynnMQ9Un-43" value="" style="endArrow=classic;html=1;rounded=0;exitX=0.5;exitY=1;exitDx=0;exitDy=0;entryX=0.032;entryY=0.813;entryDx=0;entryDy=0;entryPerimeter=0;" parent="1" source="FyhEJ8f1gNvOynnMQ9Un-7" target="FyhEJ8f1gNvOynnMQ9Un-42" edge="1">
          <mxGeometry width="50" height="50" relative="1" as="geometry">
            <mxPoint x="20" y="460" as="sourcePoint" />
            <mxPoint x="70" y="410" as="targetPoint" />
            <Array as="points">
              <mxPoint x="90" y="540" />
              <mxPoint x="-30" y="540" />
              <mxPoint x="-30" y="1040" />
            </Array>
          </mxGeometry>
        </mxCell>
        <mxCell id="FyhEJ8f1gNvOynnMQ9Un-44" value="" style="endArrow=classic;html=1;rounded=0;entryX=0.053;entryY=0.644;entryDx=0;entryDy=0;entryPerimeter=0;" parent="1" target="FyhEJ8f1gNvOynnMQ9Un-42" edge="1">
          <mxGeometry width="50" height="50" relative="1" as="geometry">
            <mxPoint x="90" y="660" as="sourcePoint" />
            <mxPoint x="384" y="1138" as="targetPoint" />
            <Array as="points">
              <mxPoint x="90" y="670" />
              <mxPoint x="-20" y="670" />
              <mxPoint x="-20" y="1030" />
            </Array>
          </mxGeometry>
        </mxCell>
        <mxCell id="FyhEJ8f1gNvOynnMQ9Un-45" value="" style="endArrow=classic;html=1;rounded=0;exitX=0.5;exitY=1;exitDx=0;exitDy=0;entryX=0;entryY=0.5;entryDx=0;entryDy=0;" parent="1" source="FyhEJ8f1gNvOynnMQ9Un-15" target="FyhEJ8f1gNvOynnMQ9Un-42" edge="1">
          <mxGeometry width="50" height="50" relative="1" as="geometry">
            <mxPoint x="90" y="810" as="sourcePoint" />
            <mxPoint x="140" y="760" as="targetPoint" />
            <Array as="points">
              <mxPoint x="90" y="820" />
              <mxPoint y="820" />
              <mxPoint y="1020" />
            </Array>
          </mxGeometry>
        </mxCell>
        <mxCell id="FyhEJ8f1gNvOynnMQ9Un-46" value="" style="endArrow=classic;html=1;rounded=0;entryX=0.124;entryY=0.203;entryDx=0;entryDy=0;entryPerimeter=0;" parent="1" target="FyhEJ8f1gNvOynnMQ9Un-42" edge="1">
          <mxGeometry width="50" height="50" relative="1" as="geometry">
            <mxPoint x="90" y="940" as="sourcePoint" />
            <mxPoint x="140" y="890" as="targetPoint" />
            <Array as="points">
              <mxPoint x="90" y="1002" />
            </Array>
          </mxGeometry>
        </mxCell>
        <mxCell id="FyhEJ8f1gNvOynnMQ9Un-47" value="" style="endArrow=classic;html=1;rounded=0;exitX=0.5;exitY=1;exitDx=0;exitDy=0;entryX=0.179;entryY=-0.008;entryDx=0;entryDy=0;entryPerimeter=0;" parent="1" source="FyhEJ8f1gNvOynnMQ9Un-8" target="FyhEJ8f1gNvOynnMQ9Un-42" edge="1">
          <mxGeometry width="50" height="50" relative="1" as="geometry">
            <mxPoint x="430" y="740" as="sourcePoint" />
            <mxPoint x="480" y="690" as="targetPoint" />
            <Array as="points">
              <mxPoint x="320" y="550" />
              <mxPoint x="200" y="550" />
              <mxPoint x="200" y="970" />
              <mxPoint x="392" y="970" />
            </Array>
          </mxGeometry>
        </mxCell>
        <mxCell id="FyhEJ8f1gNvOynnMQ9Un-48" value="" style="endArrow=classic;html=1;rounded=0;exitX=0.5;exitY=1;exitDx=0;exitDy=0;entryX=0.25;entryY=0;entryDx=0;entryDy=0;" parent="1" source="FyhEJ8f1gNvOynnMQ9Un-12" target="FyhEJ8f1gNvOynnMQ9Un-42" edge="1">
          <mxGeometry width="50" height="50" relative="1" as="geometry">
            <mxPoint x="390" y="760" as="sourcePoint" />
            <mxPoint x="440" y="960" as="targetPoint" />
            <Array as="points">
              <mxPoint x="320" y="680" />
              <mxPoint x="210" y="680" />
              <mxPoint x="210" y="960" />
              <mxPoint x="400" y="960" />
            </Array>
          </mxGeometry>
        </mxCell>
        <mxCell id="FyhEJ8f1gNvOynnMQ9Un-49" value="" style="endArrow=classic;html=1;rounded=0;exitX=0.5;exitY=1;exitDx=0;exitDy=0;entryX=0.323;entryY=0.02;entryDx=0;entryDy=0;entryPerimeter=0;" parent="1" source="FyhEJ8f1gNvOynnMQ9Un-16" target="FyhEJ8f1gNvOynnMQ9Un-42" edge="1">
          <mxGeometry width="50" height="50" relative="1" as="geometry">
            <mxPoint x="320" y="810" as="sourcePoint" />
            <mxPoint x="410" y="980" as="targetPoint" />
            <Array as="points">
              <mxPoint x="320" y="820" />
              <mxPoint x="230" y="820" />
              <mxPoint x="230" y="950" />
              <mxPoint x="410" y="950" />
            </Array>
          </mxGeometry>
        </mxCell>
        <mxCell id="FyhEJ8f1gNvOynnMQ9Un-50" value="" style="endArrow=classic;html=1;rounded=0;exitX=0.994;exitY=0.594;exitDx=0;exitDy=0;exitPerimeter=0;entryX=0.417;entryY=0;entryDx=0;entryDy=0;entryPerimeter=0;" parent="1" source="FyhEJ8f1gNvOynnMQ9Un-20" target="FyhEJ8f1gNvOynnMQ9Un-42" edge="1">
          <mxGeometry width="50" height="50" relative="1" as="geometry">
            <mxPoint x="420" y="980" as="sourcePoint" />
            <mxPoint x="470" y="930" as="targetPoint" />
            <Array as="points">
              <mxPoint x="420" y="916" />
            </Array>
          </mxGeometry>
        </mxCell>
        <mxCell id="FyhEJ8f1gNvOynnMQ9Un-51" value="" style="endArrow=classic;html=1;rounded=0;exitX=0.5;exitY=1;exitDx=0;exitDy=0;entryX=0.965;entryY=-0.048;entryDx=0;entryDy=0;entryPerimeter=0;" parent="1" source="FyhEJ8f1gNvOynnMQ9Un-9" target="FyhEJ8f1gNvOynnMQ9Un-42" edge="1">
          <mxGeometry width="50" height="50" relative="1" as="geometry">
            <mxPoint x="680" y="770" as="sourcePoint" />
            <mxPoint x="730" y="720" as="targetPoint" />
            <Array as="points">
              <mxPoint x="545" y="540" />
              <mxPoint x="660" y="540" />
              <mxPoint x="660" y="970" />
              <mxPoint x="486" y="970" />
            </Array>
          </mxGeometry>
        </mxCell>
        <mxCell id="FyhEJ8f1gNvOynnMQ9Un-52" value="" style="endArrow=classic;html=1;rounded=0;exitX=0.5;exitY=1;exitDx=0;exitDy=0;entryX=0.881;entryY=-0.03;entryDx=0;entryDy=0;entryPerimeter=0;" parent="1" source="FyhEJ8f1gNvOynnMQ9Un-13" target="FyhEJ8f1gNvOynnMQ9Un-42" edge="1">
          <mxGeometry width="50" height="50" relative="1" as="geometry">
            <mxPoint x="680" y="790" as="sourcePoint" />
            <mxPoint x="640" y="1010" as="targetPoint" />
            <Array as="points">
              <mxPoint x="545" y="680" />
              <mxPoint x="650" y="680" />
              <mxPoint x="650" y="960" />
              <mxPoint x="476" y="960" />
            </Array>
          </mxGeometry>
        </mxCell>
        <mxCell id="FyhEJ8f1gNvOynnMQ9Un-53" value="" style="endArrow=classic;html=1;rounded=0;exitX=0.5;exitY=1;exitDx=0;exitDy=0;entryX=0.75;entryY=0;entryDx=0;entryDy=0;" parent="1" source="FyhEJ8f1gNvOynnMQ9Un-17" target="FyhEJ8f1gNvOynnMQ9Un-42" edge="1">
          <mxGeometry width="50" height="50" relative="1" as="geometry">
            <mxPoint x="490" y="850" as="sourcePoint" />
            <mxPoint x="540" y="800" as="targetPoint" />
            <Array as="points">
              <mxPoint x="545" y="820" />
              <mxPoint x="640" y="820" />
              <mxPoint x="640" y="950" />
              <mxPoint x="460" y="950" />
            </Array>
          </mxGeometry>
        </mxCell>
        <mxCell id="FyhEJ8f1gNvOynnMQ9Un-54" value="" style="endArrow=classic;html=1;rounded=0;exitX=0;exitY=0.632;exitDx=0;exitDy=0;exitPerimeter=0;entryX=0.667;entryY=0;entryDx=0;entryDy=0;entryPerimeter=0;" parent="1" source="FyhEJ8f1gNvOynnMQ9Un-21" target="FyhEJ8f1gNvOynnMQ9Un-42" edge="1">
          <mxGeometry width="50" height="50" relative="1" as="geometry">
            <mxPoint x="440" y="920" as="sourcePoint" />
            <mxPoint x="490" y="870" as="targetPoint" />
            <Array as="points">
              <mxPoint x="450" y="918" />
            </Array>
          </mxGeometry>
        </mxCell>
        <mxCell id="FyhEJ8f1gNvOynnMQ9Un-55" value="" style="endArrow=classic;html=1;rounded=0;exitX=0.5;exitY=1;exitDx=0;exitDy=0;entryX=1;entryY=1;entryDx=0;entryDy=0;" parent="1" source="FyhEJ8f1gNvOynnMQ9Un-10" target="FyhEJ8f1gNvOynnMQ9Un-42" edge="1">
          <mxGeometry width="50" height="50" relative="1" as="geometry">
            <mxPoint x="660" y="660" as="sourcePoint" />
            <mxPoint x="920" y="520" as="targetPoint" />
            <Array as="points">
              <mxPoint x="760" y="540" />
              <mxPoint x="890" y="540" />
              <mxPoint x="890" y="1040" />
            </Array>
          </mxGeometry>
        </mxCell>
        <mxCell id="FyhEJ8f1gNvOynnMQ9Un-56" value="" style="endArrow=classic;html=1;rounded=0;exitX=0.5;exitY=1;exitDx=0;exitDy=0;entryX=1;entryY=0.75;entryDx=0;entryDy=0;" parent="1" source="FyhEJ8f1gNvOynnMQ9Un-14" target="FyhEJ8f1gNvOynnMQ9Un-42" edge="1">
          <mxGeometry width="50" height="50" relative="1" as="geometry">
            <mxPoint x="830" y="570" as="sourcePoint" />
            <mxPoint x="880" y="520" as="targetPoint" />
            <Array as="points">
              <mxPoint x="760" y="690" />
              <mxPoint x="880" y="690" />
              <mxPoint x="880" y="1030" />
            </Array>
          </mxGeometry>
        </mxCell>
        <mxCell id="FyhEJ8f1gNvOynnMQ9Un-57" value="" style="endArrow=classic;html=1;rounded=0;exitX=0.5;exitY=1;exitDx=0;exitDy=0;entryX=1;entryY=0.5;entryDx=0;entryDy=0;" parent="1" source="FyhEJ8f1gNvOynnMQ9Un-18" target="FyhEJ8f1gNvOynnMQ9Un-42" edge="1">
          <mxGeometry width="50" height="50" relative="1" as="geometry">
            <mxPoint x="770" y="870" as="sourcePoint" />
            <mxPoint x="820" y="820" as="targetPoint" />
            <Array as="points">
              <mxPoint x="760" y="820" />
              <mxPoint x="870" y="820" />
              <mxPoint x="870" y="1020" />
            </Array>
          </mxGeometry>
        </mxCell>
        <mxCell id="FyhEJ8f1gNvOynnMQ9Un-58" value="" style="endArrow=classic;html=1;rounded=0;exitX=0.5;exitY=1;exitDx=0;exitDy=0;entryX=1;entryY=0.25;entryDx=0;entryDy=0;" parent="1" source="FyhEJ8f1gNvOynnMQ9Un-22" target="FyhEJ8f1gNvOynnMQ9Un-42" edge="1">
          <mxGeometry width="50" height="50" relative="1" as="geometry">
            <mxPoint x="610" y="910" as="sourcePoint" />
            <mxPoint x="660" y="860" as="targetPoint" />
            <Array as="points">
              <mxPoint x="760" y="1006" />
            </Array>
          </mxGeometry>
        </mxCell>
        <mxCell id="KgNS2mUuCveM4cSc5f_L-2" style="edgeStyle=orthogonalEdgeStyle;rounded=0;orthogonalLoop=1;jettySize=auto;html=1;exitX=0.5;exitY=1;exitDx=0;exitDy=0;exitPerimeter=0;entryX=0.5;entryY=0;entryDx=0;entryDy=0;" parent="1" target="FyhEJ8f1gNvOynnMQ9Un-2" edge="1">
          <mxGeometry relative="1" as="geometry">
            <mxPoint x="425" y="20" as="sourcePoint" />
          </mxGeometry>
        </mxCell>
        <UserObject label="4" link="data:page/id,0SJwvxfQRwlbceAc_MAZ" id="KgNS2mUuCveM4cSc5f_L-3">
          <mxCell style="verticalLabelPosition=bottom;verticalAlign=top;html=1;shape=offPageConnector;rounded=0;size=0.5;" parent="1" vertex="1">
            <mxGeometry x="400" y="1100" width="60" height="60" as="geometry" />
          </mxCell>
        </UserObject>
        <mxCell id="WlMKu2CnVJJLEcwxSLDu-1" value="9" style="verticalLabelPosition=bottom;verticalAlign=top;html=1;shape=offPageConnector;rounded=0;size=0.5;" parent="1" vertex="1">
          <mxGeometry x="395" y="-40" width="60" height="60" as="geometry" />
        </mxCell>
      </root>
    </mxGraphModel>
  </diagram>
</mxfile>
